<svg xmlns="http://www.w3.org/2000/svg" preserveAspectRatio="xMidYMid meet" viewBox="0 0 259.5 238.7">
  <g transform="rotate(-45 42 90)">
    <g id="spaceship-fire" display="none">
      <path d="M27 187a28 28 0 0139 41l-29 33s0-10 2-15l7-13s-22 6-29 10l-14 9 6-21 11-16-8 4H0l25-29z" fill="#ffa10b" />
      <path d="M32 186c8-6 21-6 31 3 8 8 11 19 7 28a15 15 0 01-3 5l-21 24s-2-7 0-10l5-11s-17 3-23 6c-7 2-11 7-11 7l3-18 9-12-7 3-10-1 18-23z" fill="#ffbe0b" />
    </g>
  </g>
  <path fill="#303bce" d="M256 90s-50 48-127 48C53 138 3 90 3 90s50-30 126-30c77 0 127 30 127 30z" class="fill-primary-dark"/>
  <path fill="#3a47ff" d="M254 76c7 4 7 12 0 16-22 11-70 31-124 31-55 0-103-20-125-31-7-4-7-12 0-16 22-11 70-31 125-31 54 0 102 20 124 31z" class="fill-primary"/>
  <path fill="#c4c4c4" fill-opacity=".8" d="M187 60c0 18-26 20-57 20-32 0-58-2-58-20 0-19 13-50 58-50 44 0 57 31 57 50z"/>
  <path fill="#fff" stroke="#303bce" stroke-width="6" d="M213 96a13 13 0 000-25c-7 0-12 6-12 13 0 6 5 12 12 12zm-83 14c6 0 12-5 12-11 0-7-6-12-12-12-7 0-13 5-13 12 0 6 6 11 13 11zM46 94c6 0 12-5 12-11 0-7-6-12-12-12s-12 5-12 12c0 6 6 11 12 11z" class="stroke-primary-dark"/>
  <g id="hat" display="none">
    <path fill="#fff" stroke="#000" stroke-width=".2" d="M251 529s21-73 49-112c27 39 49 113 49 113-12 16-85 15-98-1z" transform="rotate(45 271 194) scale(.27838)"/>
    <path fill="red" d="M188 10c-1-1 2-1 2-2h-3l2-2c0-1-3 0-2-1h3l-3-2c1-1 3 2 4 1l-1-3 2 3V0l1 3c1 0 1-3 2-2v3s1-3 3-2l-3 3 3-1-2 1c0 2 4 1 3 2l-3 1s3 0 2 1h-3s3 1 2 2l-3-2 1 3-2-3-1 4v-3c-1-1-1 2-2 2l1-3z" color="#000" opacity=".9"/>
    <path fill="#0ff" d="M189 11l2-3-4 1 4-2-4-1 3-1c0-1-3 0-2-1h3s-3-2-2-3l3 3-1-3c1-2 1 3 2 2l1-3v3c1 1 2-3 2-3 1 1-1 3-1 4l4-1-3 1 3 1-2 1c-1 2 3 1 2 2 0 1-2-2-3 0l3 2c-1 0-3-2-4-1l1 3-2-3v3l-1-3c-1 1-1 4-2 3V9l-2 2z" color="#000" opacity=".9"/>
    <path fill="red" d="M170 21l-4-1 3-3h3l-2 4z" color="#000" opacity=".9"/>
    <path fill="#00f" d="M176 27l2 5h-3l-1-4z" color="#000" opacity=".9"/>
    <path fill="#0f0" d="M187 19l-3 3 1-3v-3l2 1 2 1z" color="#000" opacity=".9"/>
    <path fill="#ff0" d="M184 27l-3 1-1-3c1-2 1-2 3-1z" color="#000" opacity=".9"/>
    <path fill="#0ff" d="M180 19v3h-5v-4z" color="#000" opacity=".9"/>
    <path fill="#f0f" d="M171 24l4 1-3 1-3 2-1-5z" color="#000" opacity=".9"/>
    <path fill="#f60" d="M190 13c-2 1-3 1-4-1l1-3c2-1 3-1 3 1 2 1 1 3 0 3z" color="#000" opacity=".9"/>
    <path fill="green" d="M179 36h-2l2-3 2-3v7z" color="#000" opacity=".9"/>
    <path fill="olive" d="M182 12l1 4h-4v-3z" color="#000" opacity=".9"/>
    <path fill="#b3b3b3" d="M191 12V9l-2 2 2-3-3 1 3-2-4-1h3c1-1-2-1-2-2 0-2 2 1 3 1l-1-3 2 2V0l2 3c1 0 0-3 1-2v3l2-3c1 1-2 3-1 3h3l-3 1 4 1h-3c0 1 3 2 2 3 1 1-2-2-3 0 0 0 3 1 2 2l-3-2 1 3c-1 1 0-2-1-2-2-1-1 3-1 3-2 0 1-3-1-4-1 1-1 4-2 3z" color="#000" opacity=".9"/>
  </g>
</svg>