<?xml version="1.0" standalone="no"?>
<!DOCTYPE svg PUBLIC "-//W3C//DTD SVG 20010904//EN"
 "http://www.w3.org/TR/2001/REC-SVG-20010904/DTD/svg10.dtd">
<svg version="1.0" xmlns="http://www.w3.org/2000/svg"
 width="700.000000pt" height="700.000000pt" viewBox="0 0 700.000000 700.000000"
 preserveAspectRatio="xMidYMid meet">
<metadata>
Created by potrace 1.14, written by Peter Selinger 2001-2017
</metadata>
<g transform="translate(0.000000,700.000000) scale(0.100000,-0.100000)"
fill="#000000" stroke="none">
<path d="M6895 6966 c-55 -18 -296 -97 -535 -175 -409 -134 -597 -196 -1255
-411 -148 -49 -313 -103 -365 -120 l-95 -30 -1229 -1230 -1230 -1230 -257 257
c-142 142 -263 258 -269 258 -6 0 -381 -371 -835 -824 l-824 -825 340 -340
339 -341 -187 -187 -186 -186 637 -638 637 -637 26 24 c14 13 98 97 187 186
l162 162 340 -339 340 -339 827 827 c455 454 827 829 827 833 0 3 -115 120
-255 260 -140 140 -255 259 -255 265 0 5 551 561 1225 1235 l1224 1224 97 295
c53 162 118 360 144 440 26 80 109 334 185 565 75 231 145 444 156 473 10 28
19 53 18 55 0 1 2 9 5 17 2 8 41 125 85 260 44 134 79 245 78 247 -2 1 -48
-13 -102 -31z"/>
</g>
</svg>
