<svg xmlns="http://www.w3.org/2000/svg" viewBox="0 0 72.5 62.5">
  <path fill="#fff" d="M60.3 59.8c-1.9-5-4.5-9.5-7.8-13.7-1.8-2.2-2-3-1.4-3.7.9-.8 1.8-.4 3.4 1.6 3.7 4.7 6.6 10 8.7 15.5.8 2.1.5 3-1 3-.8 0-1-.2-2-2.7zm9.7-1.6l-1.4-3c-1-2-3.2-6.2-4.8-8.6-.6-1 0-1.9 1.2-1.9.8 0 1 .3 2 1.8 1.5 2 4.3 7.5 5 9.5.4 1 .4 1.6.2 2-.4.7-1.7.8-2.2.2zm-10.4-17a55.7 55.7 0 00-23.8-16c-4-1.4-4.3-1.6-4.3-2.6 0-1.5 1-1.5 5.2 0A58.8 58.8 0 0163 40.7c.6.8.6 1 0 1.7-.2.4-.7.8-1 .8a9 9 0 01-2.4-2.2zm-13.7-2a51 51 0 00-9.7-6.5c-2.7-1.5-3.2-1.9-3.3-2.6 0-.6 0-1 .6-1.2.5-.3 1-.2 3.3 1a41.1 41.1 0 0113 9.5c0 1-.5 1.6-1.3 1.6-.3 0-1.5-.8-2.6-1.7zM66 36c-4-4.2-8.5-7.8-13.5-10.7-2.8-1.5-3.3-2-3-3 .4-1 1.4-1 3.3 0 6 3.3 11.4 7.5 16 12.5 3.2 3.4 3.7 4.2 3.3 5-.7 1.4-1.6.8-6.1-3.8zM6.3 33c-.5-.5-1-1.2-1-1.6-.2-.5 0-2.8.6-5.2.9-4.4.9-4.4-1.7-7.7-2.5-3.3-2.5-3.3 7.3 4.4 11.2 9 11.8 9.4 9 8l-2.1-1.3c-.2-.2-2.2.7-4.6 2-2.6 1.2-5.7 2.8-7.5 1.4zm61.3-6.8a19 19 0 01-3.3-2.8c-.2-.8.2-1.5 1-1.8.6 0 1.3.2 3 1.6 3 2.2 4.2 3.3 4.2 4 0 .4-1 1.4-1.5 1.4-.2 0-1.7-1-3.4-2.4zM41 20.2l-4.8-1.6c-.6-.4-.7-1.8-.1-2.3.5-.4.9-.4 3.2.2a23 23 0 018.2 3.4c.5 1-.2 2-1.3 1.8-.5 0-2.8-.7-5.2-1.5zm17.2-.2a67.7 67.7 0 00-14.8-5.5l-5-1.4c-1.5-.8-1-2.5.8-2.5a64.2 64.2 0 0123.2 8.7c.5.5.5.8.2 1.4-.5 1.2-1.4 1-4.3-.6zm-47-11c-.6-.3 3.6-7.8 4.6-8.5 1-.7 2.8-.7 3.7 0 .8.5 5 8.2 4.6 8.5-.3.3-12.4.2-13 0z"/>
  <path fill="#f3bf43" d="M.4 13.7a3.6 3.6 0 011-4.4c.6-.5 1.4-.5 5-.5h22.2c4 0 4.2 0 5.3 1 .8.9 1 1.2 1 2.4 0 1.5-.2 1.8-5.4 8.2-1.3 1.4-1.3 1.4-.5 5.5.5 2.1.8 4.3.8 4.8 0 1.8-1.5 3.3-3.4 3.3-2.9 0-20-12.9-26-20.3z"/>
</svg>