<svg xmlns="http://www.w3.org/2000/svg" viewBox="0 0 716.7 744.5"><defs><clipPath id="b" clipPathUnits="userSpaceOnUse"><path d="M0 595.3h841.9V0H0z"/></clipPath><clipPath id="c" clipPathUnits="userSpaceOnUse"><path d="M0 595.3h841.9V0H0z"/></clipPath><clipPath id="d" clipPathUnits="userSpaceOnUse"><path d="M0 595.3h841.9V0H0z"/></clipPath><clipPath id="e" clipPathUnits="userSpaceOnUse"><path d="M0 595.3h841.9V0H0z"/></clipPath><clipPath id="a" clipPathUnits="userSpaceOnUse"><path d="M178 665h575.1V-64.4h-575z"/></clipPath><clipPath id="f" clipPathUnits="userSpaceOnUse"><path d="M0 595.3h841.9V0H0z"/></clipPath><clipPath id="g" clipPathUnits="userSpaceOnUse"><path d="M0 595.3h841.9V0H0z"/></clipPath><clipPath id="h" clipPathUnits="userSpaceOnUse"><path d="M0 595.3h841.9V0H0z"/></clipPath><clipPath id="i" clipPathUnits="userSpaceOnUse"><path d="M0 595.3h841.9V0H0z"/></clipPath><clipPath id="j" clipPathUnits="userSpaceOnUse"><path d="M0 595.3h841.9V0H0z"/></clipPath><clipPath id="k" clipPathUnits="userSpaceOnUse"><path d="M0 595.3h841.9V0H0z"/></clipPath><clipPath id="l" clipPathUnits="userSpaceOnUse"><path d="M0 595.3h841.9V0H0z"/></clipPath><clipPath id="m" clipPathUnits="userSpaceOnUse"><path d="M0 595.3h841.9V0H0z"/></clipPath><clipPath id="n" clipPathUnits="userSpaceOnUse"><path d="M0 595.3h841.9V0H0z"/></clipPath><clipPath id="o" clipPathUnits="userSpaceOnUse"><path d="M0 595.3h841.9V0H0z"/></clipPath><clipPath id="p" clipPathUnits="userSpaceOnUse"><path d="M0 595.3h841.9V0H0z"/></clipPath><clipPath id="q" clipPathUnits="userSpaceOnUse"><path d="M0 595.3h841.9V0H0z"/></clipPath><clipPath id="r" clipPathUnits="userSpaceOnUse"><path d="M0 595.3h841.9V0H0z"/></clipPath><clipPath id="s" clipPathUnits="userSpaceOnUse"><path d="M0 595.3h841.9V0H0z"/></clipPath><clipPath id="t" clipPathUnits="userSpaceOnUse"><path d="M0 595.3h841.9V0H0z"/></clipPath><clipPath id="u" clipPathUnits="userSpaceOnUse"><path d="M0 595.3h841.9V0H0z"/></clipPath></defs><g clip-path="url(#b)" transform="matrix(1.33333 0 0 -1.33333 -265.7 781.1)"><path fill="#4dc2c3" d="M199.3 297.9a221.4 221.4 0 10442.9 0 221.4 221.4 0 00-443 0"/></g><g clip-path="url(#c)" transform="matrix(1.33333 0 0 -1.33333 -265.7 781.1)"><path fill="#fcbd11" d="M247 435.2c2.2-10.5 6.5-14.3 9.6-16 8.8-4.7 17 3.2 41.7 4.3 7.9.4 12.7-.2 17.4-2.9 7-4.1 8.4-10.3 11.2-14.1 11.5-15.5 49.3 7.7 99 5.2 38.2-1.9 66-12.6 66-12.6 15.2-5.9 26.5-12.4 40.6-8.5 13 3.6 14.9 13.3 27 13.5 6.2.2 13.2-3 27.1-9.6 12.3-5.8 15.9-8.8 20.6-7 5.7 2.2 9.9 10.4 8.4 15.7-.2.5-1 2-2.9 5l-5 8.4c-3.4 5.3-6.2 9.3-7.5 11-2.4 3.4-4.5 6-6.3 8.3-7.4 9.4-14 17-16.2 19.3-17.2 19-49.3 37.7-71.6 47-8.3 3.6-16 6-17 6.4a221 221 0 01-63.6 10.8s-25 .5-50.2-4.7a336 336 0 01-15.3-3.8l-2.7-.8-1.6-.5c-3.7-1-8.1-2.6-8.1-2.6l-12.2-4.5a217.3 217.3 0 01-88.5-67.3"/></g><g clip-path="url(#d)" transform="matrix(1.33333 0 0 -1.33333 -265.7 781.1)"><path fill="#4b5ca9" d="M640.6 324c-2.7 3.7-18.2 23.5-41.2 23.6a59.6 59.6 0 01-31-10.4c-13.4-8-13.5-13.3-24-20.1-19.3-12.7-30-2-47.2-10.9-17.6-9.3-9.6-22.6-34.8-60.8-15.2-23-26.6-31-26.3-48.7.2-13.4 6.5-24.4 6.5-24.4 6.9-11.8 13.1-10.4 17.5-19.8 5.2-11.1-2.3-22.1.4-38.3 1.2-7.7 5.7-18.2 20.6-29.4 11.7 3.3 28 9 46 18.8a221 221 0 0193.2 95.8A218.8 218.8 0 01640.6 324"/></g><g clip-path="url(#e)" transform="matrix(1.33333 0 0 -1.33333 -265.7 781.1)"><path fill="#93c83d" d="M290 119.1c16.8-9.8 25.4-4 42.9-10 23-7.8 20.6-22.4 41.2-27.7 17-4.5 39 .2 44.3 12 4.5 10.3-2 26-14 36.2-78.3 66.4-95.3 94-89.2 104.2 8 13.6 53.6-6.8 69.1 14.5 11 15 1 43-9.8 58.3-2 2.8-11 15.2-28.1 23.2-9 4.2-27.7 13-47.2 4.7-24.8-10.6-29.7-37.8-30-39.8-6.7 3-40.8 17.4-57.8 3-22.5-19.2.8-75.4 6.6-89.2 10-24.2 24.5-42.3 30-49.3a236 236 0 0142-40"/></g><g clip-path="url(#f)" transform="matrix(1.33333 0 0 -1.33333 -265.7 781.1)"><path fill="#f36b21" d="M375.3 514.7a279.1 279.1 0 00107.4-4.2c.7 1.9 10.7 29.3-7 53.1a58.4 58.4 0 01-45 22.2c-17.2-.3-29-9-33.5-12.5a60 60 0 01-23.5-40.6c-.6-7.6.5-13.9 1.6-18"/></g><g clip-path="url(#g)" transform="matrix(1.33333 0 0 -1.33333 -265.7 781.1)"><path fill="#b05e27" d="M458.7 515.1L463 552a231.7 231.7 0 0081.2-25.7l-14.4-35.5a192.8 192.8 0 01-71 24.4"/><path fill="#84351b" d="M461.3 552.2a4.3 4.3 0 00-1 4.4c.6 1.5 2 2.2 2.3 2.3a158 158 0 0087.5-29.6c.7-.9 1-2 .7-3-.4-1.3-2.1-2.2-4-1.8a270.2 270.2 0 01-85.5 27.7M465.6 513.9a132.8 132.8 0 0015.5-3.2l7.5 23-16.1 4.2z"/><path fill="#fcbd11" d="M503.2 520.5l25.5-9.9 3.7 9-26 9.6z"/><path fill="#231f20" d="M483.2 522.6a1.8 1.8 0 10-3.6 0 1.8 1.8 0 003.6 0"/><path fill="#f1f0f0" d="M497.7 553.9l-1.6 15.3a39 39 0 0126.7-9.2l-7.6-11.8a669 669 0 00-17.5 5.7"/><path fill="#87361b" d="M496.1 569.2a94.8 94.8 0 0026.7-9.3 39.8 39.8 0 00-26.7 9.3"/><path fill="#f1f0f0" d="M517 551.1c4.7 1.7 7 3.2 6.8 4.3 0 .6-1 1.2-3 1.6l-.6-1c1.6 0 2.4-.2 2.5-.6 0-.5-1.4-1.3-4.5-2.5l-1.1-1.8"/></g><g clip-path="url(#h)" transform="matrix(1.33333 0 0 -1.33333 -265.7 781.1)"><path fill="none" stroke="#231f20" stroke-miterlimit="10" stroke-width="3" d="M299 482.2a67 67 0 00-10.4 15.1"/><path fill="#94c93d" d="M289.9 496.8l-9-5.6c-5.1-4.6-10.9-5.6-13.6-3.3-1.4 1-2.6 3.5-2 5.4.9 2.6 4.4 2.7 4.6 5 .1 1.6-2 2.4-1.4 4 .3 1 2.1 2.1 2.1 2.1-1.1 1.7-1.4 3.7-.6 5.3 1.2 2.3 4.5 3.4 7.6 2 7 7.5 11.2 8.5 13.8 7.7 2.5-.8 3.8-3.2 7-3.1 2.6 0 3.4 1.7 6 2 1.6 0 4.2-.4 7.7-3.7a119.9 119.9 0 00-22.2-17.8M319.7 446l20 9.5c2.4 4.3 2.6 8.1 1 9.3-.8.7-2.3.6-2.7.6-1.7 0-3-.7-3.5-1a5.8 5.8 0 01-6.8 1c-2.5-1.3-2.8-4.2-2.9-4.4-1.2 1-2.9 1-4 .3-1.6-1-2.1-3.1-1.1-4.9-3.2.3-5.8-2.1-6-4.9-.1-3 2.6-5.7 6-5.4M453 431.3l23-6.5c4.2.3 6.7 3.8 6.2 6.4-.4 1.9-2.1 3.4-4.3 4-.2.4-1.7 4.6-6.3 5.9a9.7 9.7 0 01-8.2-1.7c-4 4.1-9.6 3.6-11.7.9-1.5-2.2-1.2-6 1.4-9"/><path fill="none" stroke="#231f20" stroke-miterlimit="10" stroke-width="3" d="M512.3 436.5l7.4 16.8"/><path fill="#94c93d" d="M500.4 462.9c-1.5 1.6-2.6 3-3.3 4a5.8 5.8 0 001.4 7.3 5.8 5.8 0 007.6-.5c3 3.7 6.8 4.6 8.5 3.3 1.3-1 1.4-3 1.4-3.5 2.2 3 6 4.6 9.6 4.1 3.9-.6 7.1-3.5 8.2-7.3.7-.1 8.5-1.1 12-8 2.1-4.1 1.5-8.1 1.2-9.5 2.6-.9 4.5-3 4.6-5.2.2-3-2.7-5-3.2-5.3-3.4-2.2-8.7-1.4-13.4 2a452 452 0 01-15.3 6.8 49.6 49.6 0 00-19.3 11.8"/><path fill="none" stroke="#231f20" stroke-miterlimit="10" stroke-width="4" d="M573.3 459.4l14.7 17.5"/><path fill="#94c93d" d="M559.8 505.5c1.3 1.9 6.1.9 9.2 0 .4.5 4.5 6 10.8 5.7 2.3-.1 4.2-1 5.3-1.7 2 4.8 6.7 7.8 11.6 7.7 5.8-.2 11-4.9 11.8-11.2.5.1 6.2.7 10.2-3.8a12.4 12.4 0 002.5-11c.5-.1 5.5-2 6.6-6.3 1.1-4.6-2.4-10.4-9-12.1 1.6-2 7-8.3 5.1-11.2-1.7-2.9-9.8-2-20.1 2.3l-16.3 11.7c-9.8 7-15 10.5-20.8 17.1-2 2.1-8.8 10-6.9 12.8"/></g><path fill="#94c93d" d="M333.2 157.3l-.2-13.8z"/><path fill="none" stroke="#231f20" stroke-miterlimit="10" stroke-width="5.33332" d="M333 143.5l.2 13.8"/><path fill="#b05e27" d="M320.2 143.5h26.9l10.6-7.6-10.9-7.8-26.6-1.2z"/><g clip-path="url(#i)" transform="matrix(1.33333 0 0 -1.33333 -265.7 781.1)"><path fill="#f9a01b" d="M370.9 467.8c.9-3.5 2.3-9.3 5.6-10 .3 0 1.2-.2 1.7.2 1.8 1.6-3.2 7.7-1.3 10.3 1.4 2 5-.7 11.4.6 5.2 1.1 7.3 3.7 9.2 2.5 2.1-1.4 1.4-6 3.3-6.4l1.2.2c1.3.7 1.5 3 1.5 4.5 0 12.2-3.5 35.2-3.5 35.2a350.6 350.6 0 01-2.5 20.2c6 2.5 11.8 5.2 11.5 6.7-.2.6-1.4.8-3.3 1-2.5.4-6.1.6-10.5-.2-.1.2-2.1 4.4-3.7 4-1.2-.2-1.8-3.6-1.2-6.2.7-3 3-4.9 3.9-5.5a1009 1009 0 00-3-38.2 77.6 77.6 0 01-19.1-6.2c-.9-.4-2.3-1.3-4.3-1.3-4 0-5.9 3.3-7.5 2.5-1.5-.7-2-4.3-.5-5.9 2-2.3 6.9 1.2 9.6-1.2 1.2-1.1.4-2.3 1.5-6.8"/><path fill="#f9a01b" d="M394.2 525l3.3.1c6.7 2.8 11.8 5.3 11.5 6.7-.2.6-1.4.8-3.3 1-3.9.6-7.3.4-10.1-.2-1.3 2.5-3 4.3-4 4-1.4-.3-1.9-3.7-1.3-6.2.7-3 3-4.9 3.9-5.5"/><path fill="#c37c2a" d="M368.3 479.2l-1-3.8h-2c-2.3-.2-3-.8-4.2-.4a3.5 3.5 0 00-1.8 1.6c-1.1 1.9-.2 4.7 1.2 5.2 1 .3 1.6-.8 4.1-1.7 1.4-.6 2.7-.8 3.7-.9"/><path fill="#f9a01b" d="M364.3 517c1-2.3 1.8-3.7 1.2-4.7-.7-1-2.8-1.2-4-.3-.9.6-.4 1.5-1.4 3.3-.3.6-1.4 2.6-3.2 3.1-1 .3-1.7 0-3.9-.8-6.1-2.5-6.4-2.4-6.7-3-1.2-2.5 2.6-5.1 1.3-7.6-.7-1.3-2.3-2-3.6-1.7-1.3.3-2 1.8-2.4 2.4-3.8 7.9-8.8 9.4-11.2 18.7-1.4 5.3-.2 6.8-2.1 13.9a31.3 31.3 0 01-6 11.8c-.7-.2-6.6-1.5-9.4 1.6-.4.4-1 1-.8 1.6.3 2 6.7 2.6 9 2.7 2.3 4.3 3.6 4.3 4 4.2 1-.2 1.2-2.1 2.4-6.4l2-7a253.9 253.9 0 0112-18.3c1.4 1 4.2 2.7 8.2 3 4.3.4 8-1.3 8-1.3 1.1-.4 1.8-.8 3-.8 2.3.1 3 1.8 4.6 1.5 1.5-.3 2.9-2.7 2.3-3.8-.8-1.5-4.6.4-6-1.3-1.4-1.8.8-6.6 2.7-10.9"/><path fill="#f9a01b" d="M328.3 552.9l-6-1c-.5-.3-5.6-1.7-8.7 1.1-.5.5-1.7 1.5-1.4 2.5.5 2.4 7.7 2.5 8.9 2.5.5.9 2.5 4.6 4 4.2.6-.1.9-.9 1.6-3.3l1.6-6"/><path fill="#c37c2a" d="M361 531.5l1-3.4 2.5.4c1.7 0 2.5-.2 3 .4.4.6 0 1.7 0 2-.4 1-1.4 2.1-2.5 2.1-.5 0-.7-.2-1.8-.7l-2.2-.8"/><path fill="#040505" d="M397.2 531.1c0-.5-.3-1-.7-1-.3 0-.6.5-.6 1s.3 1 .6 1c.4 0 .7-.5.7-1M321.8 555.8c0-.5-.3-1-.6-1-.4 0-.7.5-.7 1s.3 1 .7 1c.3 0 .6-.5.6-1"/></g><path fill="#b41e51" d="M684.5 449.4l-12.1-25.6 17.2-8.2 12.1 25.6zM672 416.7l-9.6-20.3L676 390l9.6 20.2zM700.8 482l-11.2-23.6 15.9-7.6 11.2 23.6z"/><path fill="#b41e51" stroke="#231f20" stroke-miterlimit="10" stroke-width="3.9999899999999995" d="M692.4 445.7l6.7 13.7"/><g clip-path="url(#j)" transform="matrix(1.33333 0 0 -1.33333 -265.7 781.1)"><path fill="#b41e51" stroke="#231f20" stroke-miterlimit="10" stroke-width="3" d="M710.9 271.5l-2.3 4.4"/><path fill="#231f20" d="M717 257.2a2.5 2.5 0 10-5 0 2.5 2.5 0 005 0M712.8 264.8a2.5 2.5 0 10-5 0 2.5 2.5 0 005 0"/></g><g clip-path="url(#k)" transform="matrix(1.33333 0 0 -1.33333 -265.7 781.1)"><path fill="#bc4f9d" d="M596.5 303.3c-1-1.3-.5-2.5.8-9.9 1.5-8 1.4-8.9 2.5-10 3.5-3.6 10.6-1.9 12.4-1.4-.6-2 0-4.1 1.3-5.4 2.2-2 5.9-1.7 7.6.6 1.6 2 .7 4.8.6 5 1.5.4 4 1.2 5.5 3.5 1.1 1.8.7 3.2-.1 10.3-.9 7.7-.8 9.1-2.3 10.4-1.7 1.3-3.7 1.3-6.8 1.2-1.3 0-8-.3-8.7-3.1-.6-2 2.1-3.6 1.3-5-.7-1.5-4.1-1.8-5.2-.5-1.1 1.5 1.3 3.9.2 5.5-1.3 1.9-7 1.7-9-1.2M560 272.4c-2.1.5-2.2 2.4-5.6 8.2-3.2 5.3-4.6 6.1-4.5 8.5 0 3 2.3 5.2 3.7 6.5-1.9.8-3 2.7-2.8 4.6.4 2.4 2.8 4.3 5 3.7 1.8-.4 3.2-2.2 3.2-4.3 1.1.9 6 4.2 10.3 2.5 1.5-.6 3.1-3.1 6.3-8.1 4-6.5 4.5-8.1 4-9.9a7.6 7.6 0 00-2.9-4c-.6-.5-3.8-2.8-6.2-1.7-2.2 1-1.8 3.9-3.6 4.3-1.5.4-3.5-1-3.7-2.4-.3-1.9 2.9-2.8 2.7-4.7-.1-1.8-3.4-3.9-6-3.2M563.5 235.6c-.3 1.6.1 1.8 3.5 9.2 2.6 5.7 2.4 7.3 4.4 8.6 2.5 1.6 5.6 1.1 7.5.6-.5 2 .5 4 2.2 5 2 1 5 .2 5.9-2 .6-1.7 0-3.8-1.8-5 .7-.2 6.6-2 8-7.1.9-3.4-.5-7.4-2-7.6-1.6-.2-2.6 5.2-4.8 5.1-1.7 0-3.7-3-3-4.8.9-2 4.7-1 5.9-3.1 1.1-2.2-1.3-6.7-4.9-8.4-3-1.4-6-.5-9 .5-2.5.7-11 3.4-12 9"/></g><g clip-path="url(#l)" transform="matrix(1.33333 0 0 -1.33333 -265.7 781.1)"><path fill="#4e3494" d="M635.3 239.6l44.6-15.3 8.7 27.3-48.2 13.2a217.9 217.9 0 00-5-25.2"/><path fill="#93509f" d="M621.7 202.2l53-26.4 14 23.6-57 27.9a212.4 212.4 0 00-10-25.1"/><path fill="#7155a4" d="M596 161l72.5-49.9 13.2 44.1-63.3 40.5A212.3 212.3 0 00596 161"/><path fill="#4e3494" d="M592 156.1l56.2-49.2-20.3-22.1L611 100l-16.4-15.3L606 68l-24.8-19L538 110a146.3 146.3 0 0122.3 16l24.5-31 13.4 13.1-26.4 27.1 10.6 11 9.7 10"/><path fill="#93509f" d="M505.3 93.2l17.6-35 23.8 12.5-17.7 34a224.3 224.3 0 00-23.7-11.5"/><path fill="#130e1f" d="M670.7 232.1c-2.6 1-4.2 2.6-3.8 3.8.4 1.1 2.8 1.3 5.3.4 2.5-1 4.2-2.6 3.8-3.7-.5-1.2-2.8-1.4-5.3-.5M675.3 245.2c-2.5.9-4.2 2.5-3.8 3.7.4 1.2 2.8 1.4 5.3.4 2.5-.9 4.2-2.6 3.8-3.7-.4-1.2-2.8-1.4-5.3-.4M659.6 235.8c-2.5 1-4.2 2.6-3.8 3.8.4 1.1 2.8 1.3 5.3.4 2.5-1 4.2-2.6 3.8-3.7-.4-1.2-2.8-1.4-5.3-.5M663 249.1c-2.4 1-4.1 2.6-3.7 3.8.4 1.1 2.8 1.3 5.3.4s4.2-2.6 3.8-3.7c-.4-1.2-2.8-1.4-5.3-.5M647.7 239.8c-2.5 1-4.2 2.6-3.7 3.8.4 1.1 2.8 1.3 5.3.4 2.5-1 4.2-2.6 3.8-3.7-.5-1.2-2.8-1.4-5.4-.5M652.1 252.6c-2.5 1-4.2 2.6-3.8 3.7.5 1.2 2.8 1.4 5.3.5 2.6-1 4.3-2.6 3.8-3.8-.4-1.1-2.8-1.3-5.3-.4M641.9 244a1.6 1.6 0 10-3.3 0 1.6 1.6 0 003.3 0M645.4 257.8a1.6 1.6 0 10-3.2 0 1.6 1.6 0 003.2 0M657.3 133.3s-.5.4-.6 1.4c-.2 2 2.2 5.7 5 11.1 3 5.9 4.2 9.3 6 10.2 1 .5 1.7.2 1.7.2.7-.3 1-1 1-1.4.4-1.7-2-4.8-5.2-11-3.3-6-5-10.3-6.5-10.8-.9-.2-1.4.3-1.4.3M658.9 129a2.8 2.8 0 10-5.6 0 2.8 2.8 0 005.6 0M649.5 134a2 2 0 10-4.1 0 2 2 0 004 0M641.5 139.4a2.3 2.3 0 10-4.7 0 2.3 2.3 0 004.7 0M634.4 144.6a2.4 2.4 0 10-4.8 0 2.4 2.4 0 004.8 0M627.7 148.4a2.2 2.2 0 10-4.4 0 2.2 2.2 0 004.4 0M613.1 159.3a2.2 2.2 0 10-4.3 0 2.2 2.2 0 004.3 0M529.2 66.7a2.2 2.2 0 10-4.4 0 2.2 2.2 0 004.4 0M540 71.8a2.2 2.2 0 10-4.3 0 2.2 2.2 0 004.4 0"/><path fill="#130e1f" d="M529.2 66.7a2.2 2.2 0 10-4.4 0 2.2 2.2 0 004.4 0M540 71.8a2.2 2.2 0 10-4.3 0 2.2 2.2 0 004.4 0M525.4 74.3a2.2 2.2 0 10-4.3 0 2.2 2.2 0 004.3 0M536.3 79.4a2.2 2.2 0 10-4.3 0 2.2 2.2 0 004.3 0M521.6 81.9a2.2 2.2 0 10-4.4 0 2.2 2.2 0 004.4 0M532.4 87a2.2 2.2 0 10-4.3 0 2.2 2.2 0 004.3 0M517.2 89.1a2.2 2.2 0 10-4.3 0 2.2 2.2 0 004.3 0M528 94.2a2.2 2.2 0 10-4.3 0 2.2 2.2 0 004.4 0M619.9 153.4a2.2 2.2 0 10-4.3 0 2.2 2.2 0 004.3 0M649.8 138s-.5.4-.7 1.3c-.3 1.7 1.8 4.9 4.2 9.5 2.6 5 3.5 7.9 5.1 8.5 1 .4 1.7.1 1.7.1.7-.3 1-1 1-1.2.5-1.6-1.5-4.2-4.3-9.3-2.8-5.3-4.2-9-5.6-9.2-.8-.2-1.4.3-1.4.3M640.5 143.7s-.5.4-.7 1.4c-.3 1.7 1.9 5 4.3 9.6 2.7 5.2 3.6 8.2 5.3 8.9 1 .4 1.7 0 1.7 0 .6-.2 1-1 1-1.2.5-1.6-1.6-4.3-4.5-9.6s-4.3-9-5.8-9.4c-.7-.2-1.3.3-1.3.3M633.6 148.6s-.5.4-.6 1.4c-.3 1.7 1.8 5 4.3 9.6 2.6 5.2 3.6 8.2 5.2 8.9 1 .4 1.7 0 1.7 0 .7-.3 1-1 1-1.2.5-1.6-1.6-4.3-4.4-9.6-3-5.3-4.3-9-5.8-9.4-.8-.2-1.4.3-1.4.3M627.9 152.4s-.6.4-.7 1.3c-.4 1.6 1.6 4.6 3.9 9 2.4 4.7 3.3 7.5 4.9 8 1 .4 1.7.1 1.7.1.6-.3 1-1 1-1.2.5-1.5-1.5-4-4.1-8.9-2.7-5-4-8.4-5.4-8.7-.8 0-1.3.4-1.3.4M620.3 158s-.5.4-.7 1.3c-.3 1.6 1.7 4.5 3.9 8.8 2.4 4.7 3.2 7.5 4.8 8 1 .4 1.7 0 1.7 0 .7-.3 1-.9 1-1.2.5-1.5-1.4-3.9-4-8.7-2.7-4.9-3.9-8.3-5.3-8.5-.8-.2-1.4.3-1.4.3M613.9 162.6s-.5.4-.8 1.3c-.3 1.5 1.6 4.3 3.7 8.5 2.3 4.5 3.1 7.2 4.7 7.7 1 .3 1.6 0 1.6 0 .7-.3 1-1 1.1-1.2.5-1.5-1.4-3.8-3.9-8.4-2.5-4.7-3.7-8-5-8.2-.9-.2-1.4.3-1.4.3M606.7 164.6s-.5.4-.7 1.3c-.3 1.7 1.7 4.8 4 9.3 2.6 5 3.5 7.9 5.1 8.5 1 .4 1.7 0 1.7 0 .7-.3 1-1 1-1.2.5-1.5-1.5-4-4.2-9.2-2.8-5-4.1-8.7-5.6-9-.8-.1-1.3.3-1.3.3M668.3 185.5s-.7.5-1 1.3c-.6 1.5 1.2 4 3.1 7.7 2 4 2.6 6.5 4.3 6.8 1 .2 1.8-.2 1.8-.2a3 3 0 001.3-1.3c.8-1.4-1-3.4-3.3-7.5-2.3-4.2-3.2-7.2-4.7-7.2-.9 0-1.5.4-1.5.4M658.6 189.4s-.6.4-1 1.2c-.5 1.6 1.3 4 3.2 7.7 2 4 2.6 6.5 4.2 6.9 1 .2 1.9-.3 1.9-.3a3 3 0 001.3-1.2c.7-1.4-1-3.4-3.4-7.6-2.2-4.1-3.2-7.2-4.7-7.2-.8 0-1.5.5-1.5.5M649.7 194.5s-.6.5-1 1.3c-.5 1.6 1.3 4 3.2 7.7 2 4 2.6 6.5 4.2 6.8 1 .2 1.9-.2 1.9-.2a3 3 0 001.3-1.2c.7-1.5-1-3.5-3.3-7.6-2.3-4.2-3.2-7.2-4.8-7.2-.8 0-1.5.4-1.5.4M638.2 199s-.7.4-1 1.2c-.6 1.5 1.2 4 3.1 7.7 2 4 2.6 6.5 4.3 6.8 1 .2 1.8-.2 1.8-.2a3 3 0 001.3-1.3c.8-1.4-1-3.4-3.3-7.5-2.3-4.2-3.2-7.2-4.7-7.3-.9 0-1.5.5-1.5.5M627.5 203.7s-.6.4-1 1.3c-.6 1.5 1.3 4 3.1 7.7 2.1 4 2.7 6.4 4.3 6.8 1 .2 1.9-.2 1.9-.2a3 3 0 001.3-1.3c.7-1.4-1.1-3.4-3.4-7.5-2.2-4.2-3.2-7.2-4.7-7.3-.8 0-1.5.5-1.5.5M625 96.4s-.6.6-.7 1.5c-.3 1.6 1.9 3.5 4.4 6.6 2.8 3.4 3.8 5.6 5.4 5.5 1 0 1.8-.6 1.8-.6a3 3 0 001-1.4c.4-1.6-1.7-3-4.7-6.5s-4.4-6.1-5.9-5.8c-.8.1-1.4.7-1.4.7M616.9 103.6s-.6.6-.7 1.5c-.3 1.6 2 3.5 4.4 6.6 2.8 3.4 3.8 5.6 5.4 5.6 1 0 1.8-.7 1.8-.7a3 3 0 001-1.4c.5-1.6-1.7-3-4.6-6.5-3-3.5-4.5-6.1-6-5.8-.8.1-1.3.7-1.3.7M609.9 110.9s-.5.5-.7 1.4c-.3 1.6 2 3.5 4.5 6.6 2.7 3.4 3.7 5.6 5.4 5.6 1 0 1.7-.6 1.7-.6a3 3 0 001-1.5c.5-1.6-1.6-3-4.6-6.5-3-3.4-4.5-6.1-6-5.8-.7.1-1.3.8-1.3.8M602.9 115.4s-.5.5-.7 1.4c-.3 1.6 2 3.5 4.5 6.6 2.7 3.4 3.7 5.6 5.4 5.6 1 0 1.7-.6 1.7-.6a3 3 0 001-1.5c.5-1.6-1.6-3-4.6-6.5-3-3.4-4.5-6.1-6-5.8-.7.1-1.3.8-1.3.8M596.5 122.6s-.5.5-.6 1.4c-.3 1.6 1.9 3.5 4.4 6.6 2.7 3.4 3.8 5.6 5.4 5.6 1 0 1.8-.6 1.8-.6a3 3 0 001-1.5c.4-1.6-1.7-3-4.7-6.5-3-3.4-4.4-6.1-5.9-5.8-.8.1-1.4.8-1.4.8M589 128.9s-.5.5-.7 1.4c-.3 1.6 2 3.5 4.5 6.6 2.7 3.4 3.7 5.6 5.4 5.6 1 0 1.7-.6 1.7-.6a3 3 0 001-1.5c.5-1.5-1.6-3-4.6-6.5-3-3.4-4.5-6.1-6-5.8-.7.2-1.3.8-1.3.8M583.6 137s-.6.5-.8 1.3c-.4 1.4 1.5 3 3.6 5.5 2.3 2.9 3 4.8 4.5 4.6a3.5 3.5 0 002.8-2.1c.5-1.5-1.3-2.6-3.8-5.5-2.5-2.8-3.6-5.1-5-4.7-.7.2-1.3.8-1.3.8M582.5 63s-.4.7-.4 1.5c0 1.5 2.1 2.6 4.7 4.6 2.8 2.3 4 4 5.5 3.4.8-.3 1.4-1 1.4-1 .6-.7.7-1.4.8-1.7.2-1.5-1.9-2.2-5-4.4-3-2.2-4.6-4.2-5.9-3.5-.7.4-1 1.1-1 1.1M575.5 69.2s-.4.6-.4 1.5c0 1.6 2.5 2.9 5.5 5.2 3.3 2.6 4.6 4.4 6.2 4 1-.3 1.5-1 1.5-1 .6-.7.7-1.5.7-1.7.1-1.6-2.2-2.5-5.6-5-3.5-2.6-5.4-4.7-6.7-4.1-.8.4-1.2 1-1.2 1M567.6 77.6s-.4.6-.3 1.6c.3 1.7 3.3 3.4 7 6.3 4 3.1 5.9 5.3 7.6 5 1-.2 1.7-1 1.7-1 .5-.6.6-1.3.6-1.6 0-1.7-2.8-3-7.1-6.1-4.4-3.2-6.8-5.8-8.3-5.3-.8.3-1.2 1-1.2 1M559.9 87.4s-.4.6-.3 1.5c.1 1.7 2.9 3.2 6.3 5.9 3.7 2.8 5.3 4.9 7 4.5 1-.2 1.5-1 1.5-1 .6-.6.7-1.4.7-1.7 0-1.6-2.6-2.7-6.5-5.6-4-2.9-6.1-5.3-7.5-4.7-.8.3-1.2 1-1.2 1M553.5 96.2s-.4.6-.3 1.5c.2 1.7 3 3.3 6.5 6 3.8 3 5.5 5 7.2 4.7 1-.2 1.6-1 1.6-1 .5-.6.6-1.4.6-1.6 0-1.7-2.6-2.8-6.6-5.8-4.1-3-6.4-5.5-7.8-4.9-.8.3-1.2 1-1.2 1M547 105.5s-.4.7-.3 1.6c.2 1.7 3 3.3 6.5 6 3.8 3 5.5 5 7.2 4.7 1-.2 1.6-1 1.6-1 .5-.6.6-1.4.6-1.7 0-1.6-2.6-2.8-6.6-5.7-4.1-3-6.4-5.5-7.8-5-.8.4-1.2 1.1-1.2 1.1"/></g><g clip-path="url(#m)" transform="matrix(1.33333 0 0 -1.33333 -265.7 781.1)"><path fill="#ededee" d="M481.9 171.2a84.5 84.5 0 0136.9 12.3 240.5 240.5 0 001.5 52.9 43.1 43.1 0 01-33.5-4.1 72.8 72.8 0 01-5-61"/><path fill="#ececed" d="M570.7 134.3a348.8 348.8 0 01-8.6 39.4 1062.6 1062.6 0 0130 33.3 72.8 72.8 0 0010-38.1 153.3 153.3 0 00-31.4-34.6M507.1 113.6a531.8 531.8 0 00-20.7 46.5 557 557 0 0024 26.5 173.2 173.2 0 0022-42.8 46.5 46.5 0 00-25.3-30.2"/><path fill="#2c2c2c" d="M487.7 224.8c1.7 1.6 3.6 2.7 5.6 3.6a23.8 23.8 0 0013.2 1.6c2.2-.4 4.4-1 6.3-2.2-2.2 0-4.3 0-6.4-.2a78.8 78.8 0 01-12.4-1.4c-2-.4-4-1-6.3-1.4M486.8 215.7c1.6 1.7 3.6 3 5.7 4a29.3 29.3 0 0013.4 3.1c2.4 0 4.7-.3 7-1a148.4 148.4 0 01-19.5-4.2l-6.6-1.9M485.2 209.1c2 1.4 4.3 2.4 6.6 3.2a35 35 0 0014.4 1.5c2.4-.3 4.8-.8 7-1.8-2.3-.3-4.7-.4-7-.6a292.3 292.3 0 01-13.9-1.4c-2.3-.3-4.6-.7-7-.9M485.8 201.2c1.7 1.5 3.8 2.5 6 3.3a22.8 22.8 0 0013.6.2 18 18 0 006-3.1l-6.5.8a59.7 59.7 0 01-12.6-.2l-6.5-1M490.2 189a38.2 38.2 0 0017.3 6c2 .1 4 0 6.2-.3a108.7 108.7 0 00-23.5-5.7M484 187.5c.2.7.5 1.1.8 1.5l1 .7c.5.1.9.2 1.4.1.4 0 1-.2 1.5-.7-.1-.7-.4-1.1-.7-1.5a2.6 2.6 0 00-2.4-.8c-.5 0-1 .2-1.6.7M495.7 152.7c1.6 1.9 3.4 3.5 5 5a331.5 331.5 0 0010.6 9.4c1.8 1.5 3.6 3 5.7 4.4a44.3 44.3 0 00-21.3-18.8M499.5 145.9a70.3 70.3 0 0020.1 18c-1.2-2-2.7-3.8-4.2-5.5a68 68 0 00-16-12.5M501.2 140.3a115.2 115.2 0 0019.1 17.1c-1-2-2.2-3.8-3.6-5.5a43.4 43.4 0 00-15.5-11.6M502.6 134.5c1.6 1.7 3.3 3.1 5 4.6a244.2 244.2 0 0010.1 8.2c1.8 1.3 3.6 2.7 5.5 3.9-1-2-2.4-3.9-3.8-5.6a39.4 39.4 0 00-16.8-11M505.9 126.1a66.6 66.6 0 0019 18.3 65.5 65.5 0 00-19-18.3M569.7 163.1a380 380 0 0016.7 16.7l6 5.3a54.6 54.6 0 00-22.7-22M575 155.6l5.2 5.3a180.8 180.8 0 019.7 10.7l4.7 5.6c-.5-2.5-1.6-4.8-2.8-7a34.3 34.3 0 00-16.8-14.6M573.6 146.2c2 2.1 4.2 4 6.2 6a253.5 253.5 0 0111.7 12.2l5.9 6.3a46.4 46.4 0 00-23.7-24.5"/></g><g clip-path="url(#n)" transform="matrix(1.33333 0 0 -1.33333 -265.7 781.1)"><path fill="#07090a" d="M516.2 156.5a17 17 0 1034.2 0 17 17 0 00-34.2 0"/><path fill="#07090a" d="M542.9 170.6l-5 5.8-2 26.7c-.1 2-1.8 3.6-3.7 3.5a3.5 3.5 0 01-3.4-3.5l-.7-27.3-6.7-7"/><path fill="#a4a5d2" d="M547.1 156.8a13.8 13.8 0 10-27.6 0 13.8 13.8 0 0027.6 0"/><path fill="#2c2c2c" d="M524.1 151.9l1.5-1.2 1.1-1 1.2-1c.5-.3 1-.6 1.5-1.1-.7-.3-1.4-.4-2-.3a4 4 0 00-2 .9c-1 .8-1.7 2.3-1.3 3.7"/></g><path fill="#42bc9c" d="M197 429.6l-65.5-14.4 37.4-61z"/><g clip-path="url(#o)" transform="matrix(1.33333 0 0 -1.33333 -265.7 781.1)"><path fill="#1d6456" d="M339.3 284.1a65.9 65.9 0 00-9.3-.4 139.5 139.5 0 00-9.2.3l.8.1a161.3 161.3 0 00-20.6-9 69.5 69.5 0 009.3 6.2c3.3 2 6.6 3.8 9.9 5.5l.4.2h.4a177 177 0 0013.7-1.9l4.6-1"/><path fill="#1d6456" d="M332.7 299.7l-2.9-4.2-3-4.1c-1-1.4-1.9-3-3.2-4a17.3 17.3 0 00-4.3-3l-.3.2a17.4 17.4 0 002.3 4.7c1 1.5 2.5 2.5 3.7 3.6a173 173 0 003.7 3.6l3.8 3.4z"/><path fill="none" stroke="#1d6456" stroke-miterlimit="10" stroke-width="2" d="M347.5 262.6l-54.9 13.2M325.4 321l-29.9-52.7"/></g><g clip-path="url(#p)" transform="matrix(1.33333 0 0 -1.33333 -265.7 781.1)"><path fill="#100a09" stroke="#754c29" stroke-miterlimit="10" stroke-width="4" d="M374.8 190.3l-6.6-6.8"/><path fill="#100a09" stroke="#754c29" stroke-miterlimit="10" stroke-width="3" d="M391.4 170L380 157.7"/><path fill="#ae5d26" d="M331.2 173.6a478.2 478.2 0 0035.4 11.6 72 72 0 0010.5-9.7c1.3-1.5 3.2-3.8 6.5-7.4l4-4.3a2417.4 2417.4 0 00-34-12.6z"/><path fill="#100a09" stroke="#754c29" stroke-miterlimit="10" stroke-width="3" d="M333.4 171.4L328 166"/><path fill="#100a09" stroke="#754c29" stroke-miterlimit="10" stroke-width="4" d="M351 153.9l-5.3-5.2"/><path fill="#7f401c" d="M338.3 176.2l3.9 1.3a1452.1 1452.1 0 0019.1-23.5l-4-1.5a139.4 139.4 0 00-19 23.7M348 179.5l3.3 1a212.4 212.4 0 0018.4-23.4l-4.5-1.6a711.4 711.4 0 01-17.1 24M358 182.7l4.4 1.3a448.4 448.4 0 0019-22.5l-5.9-2.2a299.1 299.1 0 01-17.4 23.4"/></g><g clip-path="url(#q)" transform="matrix(1.33333 0 0 -1.33333 -265.7 781.1)"><path fill="none" stroke="#0a1110" stroke-miterlimit="10" stroke-width="4" d="M308.3 312.4l-13-3"/><path fill="#4fb648" d="M297.5 309.3c.5-8 .8-11.9-1.7-14-3.4-3.1-9.6-1.1-10.9-.7-.3-.4-3-3.2-7-3-3 .3-5.8 2.2-7.1 5.1a8 8 0 00-6.6 8.3 8 8 0 007.3 7.4c-.4 3.4 1.1 6.8 4 8.7 4 2.8 8.6.9 8.8.8 1 .2 7.1 1.4 10.7-2.1 1.9-2 2.1-4.8 2.5-10.5"/></g><g clip-path="url(#r)" transform="matrix(1.33333 0 0 -1.33333 -265.7 781.1)"><path fill="#ed1872" d="M232.7 240.8c.3-1.7 2-2.8 3.5-2.5 1.2.4 2.2 1.7 2 3.1.2 0 1.6 0 2.4 1 .7 1 .6 2.5-.5 3.6.7 1 .7 2.4 0 3.4a3.2 3.2 0 01-3.8 1.2c-1.7 1.5-4 1.4-5.3.1-.8-.8-1-2.2-.6-3.5-2-1.4-2.2-3.9-1.2-5.2.8-1 2.1-1.4 3.5-1.2M261.6 231.3c-.4-1.5.2-3.1 1.5-4 1.3-.7 3-.5 4 .4 1-1.7 3.4-2.1 4.8-1 1.3 1 1.6 3 .5 4.5 1.8.8 2.8 2.4 2.5 3.7-.3 1.6-2.7 3.1-5.3 2.2a3 3 0 01-2.7 3 3 3 0 01-3.1-3c-2.4.2-4.1-1.4-4.2-3 0-1.1.8-2.2 2-2.8M282.7 182.4c-.4-1.5.5-3 1.7-3.4 1.4-.3 3.2.7 3.4 2.6 1.6-.5 3.3-.4 4 .5.9 1.2.2 4-2.6 5.9 1.7.5 2.7 2.1 2.4 3.5-.2 1-1 1.7-1.9 2a3 3 0 01-3.2-1c-1 1.9-3.2 2.3-4.3 1.6-1.2-.7-1.7-3.1 0-5-2.7-.6-4-3.2-3.2-4.8.4-1.2 2-2 3.7-1.9"/></g><g clip-path="url(#s)" transform="matrix(1.33333 0 0 -1.33333 -265.7 781.1)"><path fill="#fbbc13" d="M271 188.7l-21.8 39.2a8.6 8.6 0 01-9-1.4 8.8 8.8 0 01-1.5-10.9 7.6 7.6 0 01-9.9 1 7.5 7.5 0 01-2.3-8.8c-.2 0-5.7 1.4-9.3-2.1-3.3-3.3-3.5-9.4.3-13.8-5-3.7-6.5-10.3-4-14.8 3-5.6 11.3-7.8 17.5-3.3 1.8-5.2 7-7.2 10.2-5.7 2.2 1 3.5 3.8 3.5 6.8 2.4-4 7.5-5 10.7-2.6 2.7 1.9 3.8 5.8 2.2 9.3 3.3-5.6 10-6.5 13-4 2.4 2.2 3 7 .4 11"/><path d="M257.3 213.4l6.6-12c-1.7-3.4-5.2-5.3-8.5-4.8-3.9.5-5.7 4.2-6 4.8-.4.7-2 4.1-.4 7.5 1.4 3 4.7 4.7 8.3 4.5"/></g><g clip-path="url(#t)" transform="matrix(1.33333 0 0 -1.33333 -265.7 781.1)"><path fill="#b05e27" d="M294.7 115.8l51.5-26.5A26.2 26.2 0 00337 64a349.5 349.5 0 00-75.5 41 106.9 106.9 0 0033.1 10.8"/><path fill="#f1f0f0" d="M340 57l-41.3 21-25.2 12.7 6-36.2 9-6.5z"/><path fill="#1e1309" d="M294.5 101.8a3.8 3.8 0 10-7.6 0 3.8 3.8 0 007.6 0M311.4 94a5 5 0 10-9.9 0 5 5 0 0010 0M333.1 85.5a6.3 6.3 0 10-12.7 0 6.3 6.3 0 0012.7 0M300.7 80.8l4.3-2.3-1.6-3-4.1 2.1z"/></g><path fill="#f7f7f6" d="M236.8 634L267 644l-24.2 66.1-24.1-3.4z"/><path fill="#febd11" d="M240.9 729.5l-29.7-7.4 5.2-19.3 31.3 7.4z"/><g clip-path="url(#u)" transform="matrix(1.33333 0 0 -1.33333 -265.7 781.1)"><path fill="#e83024" d="M360 43.7a11 11 0 01-1.4-8.8c1.2-4 4.8-6.8 8.7-7.3.3-.1 5.3-.7 8 2.4 2.7 3.2 2.3 9.3 2.3 9.3L360 43.7M370.9 86.2c.6-1 3.3-5 8.6-6.4a16 16 0 0112.2 1.6l3 8.3a20.1 20.1 0 01-21.6 5.6l-2.2-9M365 62.7a18.7 18.7 0 0118.1-4.9l3 8.2a20.2 20.2 0 01-18.8 6.2z"/><path fill="#dca027" d="M362.6 43l4.3 14.5 4-1-4.2-14.5z"/><path fill="#754c29" d="M379.4 478.6c-1.6-.8-2.8-2.9-2.1-4 1-1.7 8-.6 8.2 1.1.2 1.3-3.3 4.3-6.1 3M390.3 475.6c-1.7.4-3.2 3.3-2 6.6 3.4.7 6.1-1 6.4-2.6.3-2-2.5-4.5-4.4-4M396 490.7c-.8 0-2.3-2.4-1.5-4.4.6-1.2 2.2-2.5 3.7-1.9 1.6.7 2 3 1.3 4-.4.5-1 .2-2 1-1 .6-1 1.3-1.4 1.3M396.7 506.2c-.8.2-2 .2-2.6-.7-.6-.8-.3-2.2.2-2.4.4 0 .5.4 1.5 1 1.2.6 2 .5 2.1.9 0 .4-.6 1-1.2 1.2M395.5 522.9c-1-1-1-2.8-.5-4 .2-.3.5-1.2.9-1.1.9 0 1.6 5 .7 5.6-.4.3-1-.4-1.1-.5M397.3 510.2c-.6-.6-.6-1.7-.3-2.5 0-.2.3-.7.5-.7.6 0 1 3.1.5 3.5-.3.2-.7-.2-.7-.3M375.9 482.3c.4-1.7 1.8-2.6 2.9-2.4 1.2.2 2.3 2 1.5 4M379.3 469c.1 1.2.8 2.3 1.7 2.6 1.4.5 3.5-.7 4-3a24.2 24.2 0 00-5.7.4M393.2 510.2l.4 5.3c1.2-.5 2-1.8 1.8-3-.2-1.1-1-2-2.2-2.3M401 497.7c-2 .2-3 1.9-2.8 3.2.2.8 1 1.5 2.1 1.8M395.5 497.1c-1-.9-1-2.7-.5-3.9.2-.3.5-1.2.9-1.1.8 0 1.6 5 .7 5.5-.4.3-1-.3-1.1-.5M371.3 466.4c.2.2 4.2 3.8 3.5 4.8-.6.9-3.7-.2-4.5-.4M324.4 549.2c2.6 0 4.6-1.7 4.9-3.7.2-2-1.3-3.4-1.5-3.5a30 30 0 01-3.4 7.2M331.2 523.6c1.7.9 3.6.8 4.6-.2 1.4-1.3 1.4-4.4-.9-6.3a26.2 26.2 0 00-3.7 6.5M348.6 515.8c-.4 2.1.2 3.7 1 3.9.6.1 1.7-1 2.3-2.6M354.4 533.2c-.4-.4-2-2.1-4.8-2.4-2.7-.2-4.6 1-5 1.4a16 16 0 009.8 1M337.9 535.5c-1.9-1.5-2.5-3.3-2-3.9.4-.6 2.2-.4 4.1.8l-2.1 3.1M338.5 512.7c2.6.2 4.5-.4 4.6-1.2.2-1-2-2-2.3-2.2a41.1 41.1 0 01-2.3 3.4M365 515.5c-1-.4-2 0-2.2.7-.1.6.3 1.4 1 1.7l1.2-2.4M346 528.3c-.8-.7-1-2.2-.3-3 .7-.7 2-.7 2.7-.2 1 .7 1.4 2.3.6 3.2-.7.8-2.1.7-3 0M356.2 528.7c-1.4-.5-2.1-4.5-.7-5.5 1-.6 3.2.4 3.2 1.2 0 .7-1.3 1-1.4 2 0 .8.6 1.1.4 1.6-.2.5-1 .8-1.5.7M331.5 537.9c-.5-.3 0-1-.3-3-.2-1.2-.5-1.9-.1-2.2.2-.2.7-.1 1 0 1.8 1 2.4 2.7 2 3.9-.5 1-2 1.7-2.6 1.3M341.3 516.4c-1.1 1.1.1 3.8.8 5 .5.7 1 1.6 1.4 1.5 1-.2 1.5-6-.4-6.9-.6-.3-1.4 0-1.8.4M331.8 528c0-1 3-2.8 5-1.9.8.4 1.6 1.3 1.4 2-.2 1-2 1.4-3.1 1.4-1.4 0-3.2-.6-3.3-1.4"/></g></svg>