<svg xmlns="http://www.w3.org/2000/svg" viewBox="0 0 748.1 746.9"><defs><clipPath id="b" clipPathUnits="userSpaceOnUse"><path d="M0 595.3h841.9V0H0z"/></clipPath><clipPath id="c" clipPathUnits="userSpaceOnUse"><path d="M0 595.3h841.9V0H0z"/></clipPath><clipPath id="d" clipPathUnits="userSpaceOnUse"><path d="M0 595.3h841.9V0H0z"/></clipPath><clipPath id="e" clipPathUnits="userSpaceOnUse"><path d="M0 595.3h841.9V0H0z"/></clipPath><clipPath id="a" clipPathUnits="userSpaceOnUse"><path d="M115.7 675.1h569.1V-74.2H115.7z"/></clipPath><clipPath id="f" clipPathUnits="userSpaceOnUse"><path d="M0 595.3h841.9V0H0z"/></clipPath><clipPath id="g" clipPathUnits="userSpaceOnUse"><path d="M0 595.3h841.9V0H0z"/></clipPath><clipPath id="h" clipPathUnits="userSpaceOnUse"><path d="M0 595.3h841.9V0H0z"/></clipPath><clipPath id="i" clipPathUnits="userSpaceOnUse"><path d="M0 595.3h841.9V0H0z"/></clipPath><clipPath id="j" clipPathUnits="userSpaceOnUse"><path d="M0 595.3h841.9V0H0z"/></clipPath><clipPath id="k" clipPathUnits="userSpaceOnUse"><path d="M0 595.3h841.9V0H0z"/></clipPath><clipPath id="l" clipPathUnits="userSpaceOnUse"><path d="M0 595.3h841.9V0H0z"/></clipPath><clipPath id="m" clipPathUnits="userSpaceOnUse"><path d="M0 595.3h841.9V0H0z"/></clipPath><clipPath id="n" clipPathUnits="userSpaceOnUse"><path d="M0 595.3h841.9V0H0z"/></clipPath><clipPath id="o" clipPathUnits="userSpaceOnUse"><path d="M0 595.3h841.9V0H0z"/></clipPath><clipPath id="p" clipPathUnits="userSpaceOnUse"><path d="M0 595.3h841.9V0H0z"/></clipPath><clipPath id="q" clipPathUnits="userSpaceOnUse"><path d="M0 595.3h841.9V0H0z"/></clipPath><clipPath id="r" clipPathUnits="userSpaceOnUse"><path d="M0 595.3h841.9V0H0z"/></clipPath></defs><g clip-path="url(#b)" transform="matrix(1.33333 0 0 -1.33333 -162.8 768.5)"><path fill="#4f7dbf" d="M196.2 302.2a221.4 221.4 0 10442.9 0 221.4 221.4 0 00-443 0"/></g><g clip-path="url(#c)" transform="matrix(1.33333 0 0 -1.33333 -162.8 768.5)"><path fill="#f9a11a" d="M201.5 253.5a222.6 222.6 0 0039.3 182 222.6 222.6 0 00148.1 86.3c14.4-43.3 20-79.5 22.3-104.7a203 203 0 000-51.1c-3.1-20.5-8.2-54.6-31.6-74.9-22-19-43-11.3-109.3-22.2-29.6-4.8-53.4-11-68.8-15.4"/></g><g clip-path="url(#d)" transform="matrix(1.33333 0 0 -1.33333 -162.8 768.5)"><path fill="#767576" d="M224 194.7c4.1 5.7 11.1 14.2 21.5 22 22.9 17.6 39.7 15 87.7 29.5 32 9.6 31.6 12.7 56.8 18.6 29.8 7 44.7 10.5 60.9 8.3 38.8-5.4 47.5-34.9 100.1-63.5a253.6 253.6 0 0155.8-22.2 221.6 221.6 0 00-77.1-76.5A221.9 221.9 0 00224 194.7"/></g><g clip-path="url(#e)" transform="matrix(1.33333 0 0 -1.33333 -162.8 768.5)"><path fill="#41bc9c" d="M430.3 523.3a94.7 94.7 0 01-10.9-32.4c-4.6-33.4 13.2-43.4 18-90.9 2-19.3 0-26 3.7-54.2 2.3-17.6 3.5-26.4 6.2-33.5 7.3-19.4 19.5-23.8 61.4-54.7 43-31.7 50.4-39.5 72.8-46.5 14.1-4.4 26.4-5.9 35-6.4a221.2 221.2 0 01-4.5 203.6 231 231 0 01-121.1 103c-24 8.4-45.4 11.2-60.6 12"/></g><g clip-path="url(#f)" transform="matrix(1.33333 0 0 -1.33333 -162.8 768.5)"><path fill="#febd11" d="M542 484.5a32.2 32.2 0 00-14.2-14.8c-10-5-17.8-.6-31-4.1a51.5 51.5 0 01-19.6-10.4 47.4 47.4 0 01-10.3-22.7c-4-27.4 21-51.5 42.3-71.7 25.2-23.8 35.8-25.7 60.4-45.4a309 309 0 0062.5-68.5 221.2 221.2 0 016.2 37 229 229 0 01-30 39.7 281.8 281.8 0 01-48.5 40.3c-28.2 19.7-36.7 20.6-44.4 34.6-7.2 13-11.3 33.4-2.6 42.3 8.4 8.5 20.2.6 36 10.5a44 44 0 0114.8 16.4 224.3 224.3 0 01-21.6 16.8"/></g><g clip-path="url(#g)" transform="matrix(1.33333 0 0 -1.33333 -162.8 768.5)"><path fill="none" stroke="#231f20" stroke-miterlimit="10" stroke-width="6" d="M553.1 376.7l10.3 2.3"/><path fill="#009e6b" d="M566.9 363.5l-8.9 30.2a149.2 149.2 0 0042.6-3.5 89.3 89.3 0 00-33.7-26.7"/><path fill="none" stroke="#231f20" stroke-miterlimit="10" stroke-width="6" d="M485.5 349.2l10.5.7"/><path fill="#009e6b" d="M497.1 334.1a90.7 90.7 0 00-4.2 31.2 120.3 120.3 0 0041.6-10 95.7 95.7 0 00-37.4-21.2"/><path fill="none" stroke="#231f20" stroke-miterlimit="10" stroke-width="6" d="M522.8 318l10.3 2.3"/><path fill="#009e6b" d="M536.6 304.8l-9 30.2a177.3 177.3 0 0042.6-3.5 132.6 132.6 0 00-33.6-26.7"/><path fill="none" stroke="#231f20" stroke-miterlimit="10" stroke-width="6" d="M501.4 288.3c3.6 0 7 .2 10.6.3"/><path fill="#009e6b" d="M513.9 276.1a71.3 71.3 0 00-3.9 28.7 96.3 96.3 0 0036-10.5 49 49 0 00-32.1-18.2"/><path fill="none" stroke="#231f20" stroke-miterlimit="10" stroke-width="6" d="M534.2 263.5l10.5-.3"/><path fill="#009e6b" d="M548.3 247.4a30.7 30.7 0 00-2 26.7l35-15.5-33-11.2"/><path fill="none" stroke="#231f20" stroke-miterlimit="10" stroke-width="6" d="M586.4 349.7l6.7 1.5"/><path fill="#009e6b" d="M596.5 335.8l-8.9 30.2a105.8 105.8 0 0042.6-3.5 108.3 108.3 0 00-33.7-26.7"/><path fill="none" stroke="#231f20" stroke-miterlimit="10" stroke-width="6" d="M564.4 280.2l9.3 1"/><path fill="#009e6b" d="M573.1 265.9a85.5 85.5 0 00-1.7 30.5 100.2 100.2 0 0034.6-12.2 78.4 78.4 0 00-32.9-18.3"/></g><g clip-path="url(#h)" transform="matrix(1.33333 0 0 -1.33333 -162.8 768.5)"><path fill="#777677" d="M632.2 357a881.1 881.1 0 0120 34.4 160.3 160.3 0 00-41.6 17 360.6 360.6 0 0021.6-51.4"/><path fill="#777677" d="M622.5 385a1116.5 1116.5 0 0025.9 60.4 6019.3 6019.3 0 00-69 8 291.5 291.5 0 0043-68.4M559.5 472a3798.4 3798.4 0 01-42 104.4 491.1 491.1 0 01-41.4-62.2 195 195 0 0083.4-42.2"/><path fill="#777677" d="M504.8 504.7a199.2 199.2 0 01-43 65 216 216 0 01-31.7-46.3 317.5 317.5 0 0074.7-18.7"/><path fill="#d9d9d8" d="M452.3 558.3l4.5-5 5.8 4.1 4.8-4 6.4 3a199.5 199.5 0 01-12 13.2 214.7 214.7 0 01-9.5-11.3M508.9 565a483.8 483.8 0 008.6 11.4l5.8-13.8-4.5-.6-3.9 2.5-3-2.4-3 2.9M638.4 446.5l10-1.1-3-6.5h-5.3l.8 3-3.7 2.2zM649.2 386l3 5.4-6 1.6-2.8-2 3-1.5-3.5-1.7z"/></g><g clip-path="url(#i)" transform="matrix(1.33333 0 0 -1.33333 -162.8 768.5)"><path fill="#d9d9d8" d="M516.3 500.2l13.7 32.6a3.2 3.2 0 00-1 3.7c.6 1.5 2.5 2.3 4.2 1.6l15.4 12.2 3.7-20.4c2.5.1 4.3-1.9 4.2-3.7-.2-1.6-2-3.1-4.2-3 3-2 6-4.2 9-6.4L576 534c-.8 1.2-1 2.7-.2 3.8a3.4 3.4 0 004.4 1.2l21.3 12.6.7-28c2.3-.3 3.4-2.4 2.9-3.7-.4-1-1.8-1.8-3.5-1.6l-15.8-21.8 10.4-7.4L623 499l-8.5-21.2c2.6-2.5 2.8-5.7 1.7-6.7-1-1-3.9-.6-6.1 1.6l-26.5-24.8a244.2 244.2 0 01-67.3 52.4"/><path fill="#f3ab1e" d="M542 484.5c6 9.7 17.3 11.7 22.6 7.9 5.6-4 7.3-16-1-24.9a237 237 0 01-21.6 17"/><path fill="#231f20" d="M556 485.3c-.3-.4-.9-.6-1.2-.4-.4.3-.4 1 0 1.4.3.5.9.7 1.2.4.4-.3.4-.9 0-1.4M560.2 482.4c-.3-.4-1-.6-1.3-.4-.4.3-.4 1 0 1.4.3.5 1 .7 1.3.4.4-.3.4-.9 0-1.4M529.7 508.3c1 2 2.8 3 3.8 2.4 1-.6.9-2.5-.2-4.4-1.1-2-2.8-3-3.8-2.4-1 .6-.9 2.6.2 4.4M537.6 527.9c1 1.9 2.7 3 3.7 2.4 1-.6 1-2.6-.2-4.5-1-1.9-2.7-3-3.7-2.4-1 .6-1 2.6.2 4.5M585 524.7c1.1 1.9 2.8 3 3.8 2.4 1-.6 1-2.6-.2-4.5-1-1.9-2.8-3-3.7-2.4-1 .6-1 2.6.1 4.5M577.6 511.8c1 1.9 2.8 3 3.7 2.4 1-.6 1-2.6-.1-4.5s-2.8-3-3.8-2.4c-1 .6-.9 2.6.2 4.5M597.2 477.8c1.4 1.6 3.2 2.4 4.1 1.7.9-.8.5-2.7-.9-4.4-1.4-1.7-3.2-2.4-4.1-1.7-.9.7-.5 2.7 1 4.4M586.5 465.4c1.4 1.7 3.3 2.5 4.1 1.7 1-.7.5-2.7-.9-4.3-1.4-1.7-3.2-2.5-4-1.7-1 .7-.6 2.6.8 4.3"/><path d="M550.8 478l13 15a7.4 7.4 0 001-.7l-13-15-1 .7"/></g><g clip-path="url(#j)" transform="matrix(1.33333 0 0 -1.33333 -162.8 768.5)"><path fill="#f1f0f0" d="M658.5 278.3c3.5-.6 6.4-.8 8.4-.8l6 10.7 8.1-26c2.7-2 2.8-5.9.9-7.8-1.8-1.6-5-1.7-7.2.4a87 87 0 00-19.3-3.3c-11.2-.6-13.7 1.4-14.5 2.2-3.6 3.5-3 9.3-2.8 12.7.2 1.7 1.2 12.4 7 14.5 3.2 1 5-1 13.4-2.6"/><path fill="#f15722" d="M654 279.3l-3.3-28a18.4 18.4 0 00-14.4 5.8l-.1 5.4a27.6 27.6 0 012.9 13.3l2.4 4.3c.8 0 1.9.1 3.2.4l2 .7c3.4.6 6.3-1.2 7.4-2"/><path fill="#231f20" d="M674.6 287.7a1.8 1.8 0 10-3.7 0 1.8 1.8 0 003.7 0M677.1 262.6c0-.7-.8-1.3-1.8-1.3s-1.8.6-1.8 1.3c0 .7.8 1.2 1.8 1.2s1.8-.5 1.8-1.2"/><path fill="#f1f0f0" d="M638.3 284c.8 1.3 1.5 1.9 2 1.8.7-.2 1.2-2 1.2-5.7l-2.4-4.3-1.4 1.9.6 6.2M635 259.9c.5 2.6.7 4.1.9 4.1 0 0 .2-.3.3-1.7v-5.2l-1.7.3.5 2.5"/></g><g clip-path="url(#k)" transform="matrix(1.33333 0 0 -1.33333 -162.8 768.5)"><path fill="#a8a9ad" d="M238.3 172.2c11.5-2 29.5-3.3 47.6 4.7 23.6 10.5 28.2 28.6 49.5 36.4 10.6 3.9 27.9 6.2 54.6-5.4 2 1.9 14.1 13.1 32.5 12a45 45 0 0032.8-18.5 114.4 114.4 0 0056.6-22.2 125.9 125.9 0 0078-16.1 207.5 207.5 0 00-16.5-18.2 71.3 71.3 0 01-45.2 11.1l14.5-36.6a84.8 84.8 0 00-16.5-10.2l-22.4 38.7a76.3 76.3 0 01-46 27 30 30 0 00-27.2-21.2l-.2-19.2c13.8-.1 25 .5 32.5 1 15.3 1 22.3 2.5 27.9-2.3 2.9-2.5 4.5-6.9 7.5-15.5 2.7-8 4.4-14.8 5.4-19.6a223 223 0 00-187.4 7c1.3 4.3 3.4 10.5 6.6 17.8 4.5 10.3 6.8 15.4 10.6 17.9 7 4.6 14.8.6 30-2.2 8-1.5 20.2-3.1 35.8-2.3l.8 23.6a19 19 0 00-13.2 17.4c-22 13.5-36.3 13-45.2 10-16.5-5.3-19.6-20.7-38.8-31.7a75 75 0 00-43.4-8.5 212 212 0 00-21.2 25.1"/><path fill="none" stroke="#212323" stroke-miterlimit="10" stroke-width="3" d="M253.5 157.5l5 .7"/><path fill="none" stroke="#212323" stroke-dasharray="10.649,10.649" stroke-miterlimit="10" stroke-width="3" d="M268.9 160.4c9.7 2.5 17.2 5.7 22.6 8.6 7.8 4 14 8.6 23.6 15.7 19.6 14.3 20.7 18 27.9 20.5 7.2 2.4 17.8 2.6 33.6-6"/><path fill="none" stroke="#212323" stroke-miterlimit="10" stroke-width="3" d="M381.2 196.5l4.2-2.7"/><path fill="none" stroke="#212323" stroke-dasharray="10" stroke-miterlimit="10" stroke-width="3" d="M445.5 186.1a25.7 25.7 0 10-51.4 0 25.7 25.7 0 0051.4 0z"/><path fill="#767576" d="M433.6 186.1a13.8 13.8 0 10-27.6 0 13.8 13.8 0 0027.6 0"/><path fill="none" stroke="#212323" stroke-miterlimit="10" stroke-width="3" d="M462 185.8a78 78 0 005-.8"/><path fill="none" stroke="#212323" stroke-dasharray="10.684,10.684" stroke-miterlimit="10" stroke-width="3" d="M477.2 182.1a66.4 66.4 0 0033-25.7c5.8-7.5 13.2-17.9 20.6-31.4"/><path fill="none" stroke="#212323" stroke-miterlimit="10" stroke-width="3" d="M533.3 120.2l2.2-4.4M520.5 167.8l5 .4"/><path fill="none" stroke="#212323" stroke-dasharray="10.815,10.815" stroke-miterlimit="10" stroke-width="3" d="M536.3 168.3a90.8 90.8 0 0036.3-9.7"/><path fill="none" stroke="#212323" stroke-miterlimit="10" stroke-width="3" d="M577.4 156l4.2-2.6"/><path fill="none" stroke="#212323" stroke-dasharray="10" stroke-miterlimit="10" stroke-width="3" d="M415.4 149.7l-.8-10.5"/><path fill="#212323" d="M352 141.1a1040.9 1040.9 0 01-.7-24.6l3.7-.5a495.2 495.2 0 011.8 24zM369.1 137.6l.6-22.2h3l.4 21.8a42.7 42.7 0 00-4 .4M450.6 134.8l5-25.4c1 0 2 .2 2.9.3l-3.6 25.3a492.6 492.6 0 00-4.3-.2M470.5 136l5.8-27 2.2.5-4.1 26.9a311.5 311.5 0 01-4-.3"/></g><g clip-path="url(#l)" transform="matrix(1.33333 0 0 -1.33333 -162.8 768.5)"><path fill="#febd11" d="M325.7 100.7c-1.6-5.6-4.3-14.5-7.7-25.3-5.6-18-6-18.8-5.7-20.7 4-22 84-24 96.5-24.2 11.4-.2 82.7-1.5 87.6 18.8.5 2.2-.6 7.5-3 18a326.4 326.4 0 01-6.1 24.3 232.3 232.3 0 00-161.6 9"/><path fill="#4b5ca9" d="M325.7 100.7c-1.8-6-4.6-14.7-8.3-25.3-5.3-14.8-6.6-17-5.7-20.7 2.8-11.4 22.7-15.8 41.3-19.6 13.3-2.8 32-5.4 55.2-4.6l3.9 50.8a248.6 248.6 0 00-86.4 19.4"/><path fill="none" stroke="#231f20" stroke-miterlimit="10" d="M336.8 65.5a287.7 287.7 0 01137-4.8v-9A248.4 248.4 0 00335.4 55l1.5 10.5z"/><path fill="#231f20" d="M338.1 68.8c-1.2.6-2.6 0-2.9-.9-.2-.8.4-2 1.6-2.4a287.7 287.7 0 01137-4.8c1.7.6 2.3 2 2 2.6-.3.6-1.5.9-2.7.5a287.2 287.2 0 00-135 5"/><path fill="#4b5ca9" d="M303 16.7L249 43a4.5 4.5 0 00-2.1 6l5.4 11.1c1 2.3 3.8 3.2 6 2.1l54-26.2c2.1-1.1 3-3.8 2-6l-5.4-11.1a4.5 4.5 0 00-6-2"/><path fill="#58595b" d="M305.6 111l4.2-2.3 4.9-2.7L288 47.6l-9.3 4.5z"/></g><path fill="#0e1234" d="M240.9 737.1l-7.6-3.7 5.8-11.9 7.6 3.7zM229.2 731.5l-6.6-3.3 2.7-5.4-6.8 3.4-7.4-3.6 6.5-2.8-1.2-9.3 8.5 4.1.8 6.4 2.4-4.8 7 3.4z"/><g clip-path="url(#m)" transform="matrix(1.33333 0 0 -1.33333 -162.8 768.5)"><path fill="#0e1234" d="M283.2 44.1l-4.3-8.9-10.5 5.1 1 2.4c1.8-1 3.6-1.8 5.3-2.6l.6 1.1-4.3 2.3.8 1.7 4.4-2.2.6 1.4-5.3 2.5 1.2 2.3zM263.2 54l-5.7 2.7-.8-10.6 7.6-3.7 7.5 7.4-4.3 2-1.3-1-3.2 1.5c0 .6 0 1.1.2 1.7"/><path fill="#4b5ca9" d="M264.6 49.2l-2 1-.1-3.1z"/></g><g clip-path="url(#n)" transform="matrix(1.33333 0 0 -1.33333 -162.8 768.5)"><path fill="#a8a9ad" d="M163.4 214.5l-37.2 72.2 21 33.4 25.4-25.7-9.2-80"/><path fill="#818385" d="M138.3 305.9l9 14.2 13.6-13.8c.4-1.6.9-4 1.2-6.9.3-2.9 0-3.4 0-3.7-1-1.8-3.7-1.8-10.9-2.2-8.7-.5-11.3-1-12.6.8-.2.4-.4.8-.5 4 0 3.2 0 5.8.2 7.6"/></g><g clip-path="url(#o)" transform="matrix(1.33333 0 0 -1.33333 -162.8 768.5)"><path fill="none" stroke="#231f20" stroke-miterlimit="10" stroke-width="4" d="M291.2 316.8l-24.9 2.3"/><path fill="#bbce32" d="M267.5 319.4a22.7 22.7 0 01.8 16.2 14 14 0 01-10.2 7.1c-4.5.5-8-1.6-8.9-2.3a7.8 7.8 0 01-8.9 0 7.8 7.8 0 01-3-8c-4.1-.8-7-4.5-6.8-8.6a8.4 8.4 0 017.6-7.9c-1-5.4 2-10 5.7-10.7 3.6-.7 6.6 2.6 6.8 2.8 3.5-2.3 8-2.5 11.5-.5 4.1 2.3 6.3 7 5.4 11.9"/><path fill="none" stroke="#231f20" stroke-miterlimit="10" stroke-width="4" d="M297.7 365.3l-21 9"/><path fill="#bbce32" d="M277.9 374.1c1.1.8 2.8 2.1 4.3 4.1 1.6 2.1 4 5.4 3 9-.9 3.4-4.4 5-5.2 5.3-.2.7-1.3 4.7-5.3 6.8a10.5 10.5 0 01-10.6-.8c-3.4 2.8-8 3.6-11.7 1.9-4.3-2-5.7-6.2-6-6.9-1.2-.7-4.1-2.6-5-5.9-1.4-5 2-11.4 9-14.5.6-4.6 3.6-8.5 7.7-9.8 4.2-1.4 7.9.5 8.6.9.5-.2 4-1.8 7.3 0 3.2 1.7 5 5.8 3.9 10"/><path fill="none" stroke="#231f20" stroke-miterlimit="10" stroke-width="4" d="M357.1 401.4l-9.6 15.9"/><path fill="#bbce32" d="M348.5 416.6c1.2 0 3.4.2 5.8 1.2 7 3 11.8 11 10 13.8-.4.6-1.4 1.4-4.2 1.2 0 1.1.2 6.5-3.8 11.2a16.3 16.3 0 01-11.6 5.5 10.1 10.1 0 01-11.9 5 10 10 0 01-6.8-9.2c-.5-.1-4-.5-5.7-3.2-1.8-3-.7-7.9 3.4-10.8-2-6.2-1-11.9 2.2-13.8.7-.4 1.7-.8 3.4-.8 0-1.3.3-5.6 3.1-7.4 3.7-2.4 11.1-.3 16 7.3"/></g><g clip-path="url(#p)" transform="matrix(1.33333 0 0 -1.33333 -162.8 768.5)"><path fill="#bbce32" d="M363.7 311c13.2 6.1 20.4 16.6 23 20a70 70 0 0111 23.2c1.1 4.1 8 29.8-2.9 37.2a14.4 14.4 0 01-10 1.7c-5.8 8.7-14.6 13.1-20.2 11-6.8-2.5-11.7-15.8-4.6-29.9l-26.9-28.9c-16 2.6-21.1 1-22.3-1.5-2-4.6 7.4-15.7 7.4-15.7-11.8-8.3-13.3-13-12.6-15.8 2.3-9.1 34-12.5 58-1.3"/><path fill="#212413" d="M313 309.9l44.7 8a3 3 0 011.1 3.2 3 3 0 01-2.5 2.2l-44.7-8s-1.2-1.4-.8-3.2c.5-1.6 2-2.2 2.2-2.2M314.1 338.7c.3 0 35-12.7 35-12.7a3 3 0 012.5 2.1c.3 1.1-.2 2-.3 2L316.7 343c-1 .3-2.2-.3-2.8-1.3-.6-1-.5-2.2.2-2.9M363.4 398.7L376 355a3 3 0 013.2-.8 3 3 0 012 2.7l-12.4 43.7c-.1 0-1.6 1.1-3.3.5-1.6-.7-2-2.2-2-2.4M389.1 389l-.5-24a3 3 0 012.2-1.2c1-.1 1.7.2 2 .7l.6 24s-1 1-2.3 1c-1.3.2-2-.5-2-.5"/></g><g clip-path="url(#q)" transform="matrix(1.33333 0 0 -1.33333 -162.8 768.5)"><path fill="#fff" d="M366.7 337.9c1-2.5 3-4.1 5-4.1 2.8 0 4.4 3.2 4.8 4 1.7 3.2.3 5 .4 12 .2 5.9 1.3 6.5.4 9.3-.9 3-3 5.2-6.6 8-3.8 3-9.6 7-17.5 10.6-8 3.2-16.8 1.6-22.6-4a21.6 21.6 0 01-6.1-16.7c.4-.9 2.5-4.8 7-6 1.5-.4 2.8-.4 3.8-.3-2.1-5.7-.1-10.5 2.2-11.2 2-.6 5.2 1.5 7.2 5 .3-.7 2.9-6.8 9.7-8.7a15.2 15.2 0 0112.3 2"/><path fill="#474748" d="M343.8 344.3c2.2 2.3 6.7 1 7.7.7 6.5-2 9-9.8 9.5-11.1.6-5.3-3-9-5.8-9-2.3 0-5 2.9-5.5 6.9l-7 10.3c.2.7.5 1.5 1.1 2.2M344.1 379.6c6.4.5 10.8-2 19.2-6.8 8.5-4.9 14.5-8.3 14.9-13.7.2-2.1-.7-3.2-.9-8.3 0-3.2.2-6 .4-7.7.3-1.7 0-2.6 0-3.1-.6-2.5-2.7-6.3-6-6.2-2.3 0-4.2 2-4.9 3.8-.5 1.2-.2 2 0 4 0 0 .6 2.2-.8 6.9-5.3 17.2-34.2 20-33.5 26.1.4 3.1 8 4.7 11.6 5"/><path fill="#474748" d="M334.7 369c2.2-2.2 3.4-7 .5-10.6a8.1 8.1 0 00-10.7-1.4 21.1 21.1 0 003 12.8 6 6 0 004.2 1 5.7 5.7 0 003-1.7"/><path fill="#0d0e0e" d="M338.1 375.7c-1.3 1.7 1.2 8 4.7 8.2 3.6.1 6.6-6 5.4-7.8-.3-.3-.6-.4-5-.6-4.5-.2-4.8 0-5 .2M324.8 358.3c-1.9-1-7.5 3-6.8 6.5.7 3.5 7.4 5 8.8 3.3.2-.3.3-.6-.5-5-.9-4.3-1.1-4.7-1.5-4.8"/><path fill="#231f20" d="M334.3 363c0-1.7-1-3.1-2.2-3.1-1.2 0-2.2 1.4-2.2 3.2 0 1.7 1 3.1 2.2 3.1 1.2 0 2.2-1.4 2.2-3.1M341.7 367.4c-1.7.1-3 1.2-3 2.4s1.5 2 3.3 2c1.7 0 3-1.1 3-2.3 0-1.2-1.5-2.2-3.3-2M341.4 358.5c-1.5-1.9-3.4-2.8-4.4-2-1 .7-.5 2.8 1 4.7 1.4 2 3.4 2.9 4.4 2.1 1-.7.5-2.9-1-4.8"/><path fill="#414142" d="M354.6 364.5c-1-1.8-.2-4 .3-5.5.1-.4 2-5.2 4.3-5 1.7 0 2.7 2.7 4 6.1 1.1 3.2 1.7 4.7 1 5.8-1.5 2.2-7.9 1.8-9.6-1.4"/><path fill="#fff" d="M355.5 357.7l6.9.4a65.4 65.4 0 00-1.8-3.4c-.3-.3-.7-.7-1.4-.8-.7 0-1.2.3-1.4.5a9.5 9.5 0 00-2.3 3.3"/><path fill="#443c3e" d="M347.4 360.3a15.4 15.4 0 00-12-9.6 17.1 17.1 0 0112 9.6"/></g><g clip-path="url(#r)" transform="matrix(1.33333 0 0 -1.33333 -162.8 768.5)"><path fill="#f15722" d="M313 497.5l-14.7 23.4 36.3 14.7 11.5-23.7a332.7 332.7 0 01-33-14.4"/><path fill="#231f20" d="M316.7 517c1.1-2.2.7-4.6-.9-5.4-1.6-.7-3.8.4-4.9 2.7-1 2.2-.6 4.6 1 5.4 1.6.8 3.7-.4 4.8-2.6M333.4 506.8a320 320 0 007.7 3.2l-3.4 8.6a6 6 0 01-5.4 1 6 6 0 01-3.7-4l4.8-8.8"/><path fill="#f47620" d="M271.9 469l-59.2 71.2 33.2 24.3 59.8-71.2a222.7 222.7 0 01-33.8-24.4"/><path fill="#231f20" d="M271.2 494c2.2-2.1 3-5 1.6-6.3-1.3-1.3-4.1-.6-6.3 1.6s-3 5-1.6 6.4c1.3 1.3 4.1.6 6.3-1.6M284.2 505.4c2.2-2.2 2.9-5 1.6-6.4-1.3-1.3-4.2-.5-6.4 1.7s-2.9 5-1.6 6.3c1.3 1.3 4.2.6 6.4-1.6M257.5 509.8c2.2-2.2 3-5 1.6-6.3-1.3-1.3-4.2-.6-6.3 1.6-2.2 2.2-3 5-1.6 6.4 1.3 1.3 4.1.5 6.3-1.7M271.6 519.9c2.2-2.2 3-5 1.6-6.4-1.3-1.3-4.1-.6-6.3 1.6s-3 5-1.6 6.4c1.3 1.3 4.1.6 6.3-1.6M245 524.9c2.2-2.2 2.9-5 1.6-6.4-1.4-1.3-4.2-.6-6.4 1.6s-3 5-1.6 6.4c1.3 1.3 4.2.6 6.4-1.6M259.5 532c2.2-2.1 2.9-5 1.6-6.3-1.4-1.3-4.2-.6-6.4 1.6s-3 5.1-1.6 6.4c1.3 1.3 4.2.6 6.4-1.6M234.2 539.2c2.2-2.2 2.9-5 1.6-6.3-1.3-1.3-4.2-.6-6.4 1.6s-2.9 5-1.6 6.3c1.3 1.4 4.2.6 6.4-1.6M248 548.4c2.3-2.2 3-5 1.7-6.3-1.4-1.3-4.2-.6-6.4 1.6s-2.9 5-1.6 6.4c1.3 1.3 4.2.6 6.4-1.7"/><path fill="#ef3823" d="M244 439.6a227 227 0 00-48.6 37.9l19.1 26.1a249.1 249.1 0 0055.2-36.6l-11.1-10.9"/><path fill="#130c0a" d="M195.4 477.5c-.5-.1-1.7-.3-2.4.4s-.5 2-.5 2.6c.6 3.9 15.6 22.4 18 25.5 1 .5 2 .5 2.9 0 .7-.5 1.2-1.4 1.1-2.4l-19-26.1"/><path fill="#82331a" d="M269.7 467l13.1 11c.8-.4 5.6-2.3 7.4-7.5 1-2.6.7-5 .4-6.2 8.3 1.7 11 .2 12.2-1.3 4.2-5.5-4.4-23.5-18.3-29.1-5-2-5.3-.3-12-2.5-14-4.4-17.2-13.3-24.8-12.7-3 .2-7.3 2-12.1 9.6a209.3 209.3 0 0034 38.7"/><path fill="#f47620" d="M221.2 404.7l-62.7 27 15.2 32 64.3-32a273.8 273.8 0 01-16.8-27M206.6 369.6l-84.5 28 11.4 31.3 84.3-31.3-6-15.2-5.2-12.8M199 337.7l-40.5 10 2.6 23.2 43.8-7.1a206.2 206.2 0 01-5.9-26.1"/><path fill="#231f20" d="M172.7 442.3c1.3-.7 1.4-3.3.2-5.9-1.2-2.6-3.3-4.2-4.6-3.5-1.4.6-1.5 3.2-.3 5.8 1.3 2.6 3.4 4.2 4.7 3.6M178.9 456.2c1.3-.6 1.4-3.2.2-5.8-1.3-2.6-3.3-4.2-4.7-3.6-1.3.6-1.4 3.2-.2 5.8 1.2 2.6 3.3 4.2 4.7 3.6M180.7 437.4c1.3-.6 1.4-3.2.2-5.8-1.2-2.6-3.3-4.2-4.6-3.6-1.4.7-1.5 3.3-.3 5.9 1.3 2.6 3.4 4.2 4.7 3.5M186.9 451.4c1.3-.6 1.4-3.3.2-5.9-1.3-2.6-3.3-4.2-4.7-3.5-1.3.6-1.4 3.2-.2 5.8 1.2 2.6 3.3 4.2 4.7 3.6M188.1 433.3c1.4-.6 1.5-3.2.2-5.8-1.2-2.6-3.3-4.2-4.6-3.6-1.4.6-1.4 3.2-.2 5.8 1.2 2.6 3.3 4.2 4.6 3.6M194.3 447.2c1.3-.6 1.4-3.2.2-5.8-1.2-2.6-3.3-4.2-4.6-3.6-1.4.7-1.5 3.3-.3 5.9 1.3 2.6 3.4 4.2 4.7 3.5M195.5 430.5c1.3-.6 1.4-3.3.2-5.9-1.3-2.6-3.4-4.2-4.7-3.5-1.3.6-1.4 3.2-.2 5.8 1.2 2.6 3.3 4.2 4.7 3.6M201.6 444.4c1.4-.6 1.5-3.2.2-5.8-1.2-2.6-3.3-4.2-4.6-3.6-1.4.7-1.5 3.3-.2 5.9 1.2 2.6 3.3 4.2 4.6 3.5M203.9 426c1.3-.6 1.4-3.2.2-5.8-1.2-2.6-3.3-4.2-4.7-3.6-1.3.7-1.4 3.3-.2 5.9 1.3 2.6 3.3 4.2 4.7 3.5M210 440c1.4-.6 1.5-3.3.3-5.9-1.3-2.6-3.3-4.2-4.7-3.5-1.3.6-1.4 3.2-.2 5.8 1.2 2.6 3.3 4.2 4.7 3.6M212.3 422.6c1.3-.7 1.4-3.3.2-5.9-1.2-2.6-3.3-4.2-4.7-3.6-1.3.7-1.4 3.3-.2 5.9 1.3 2.6 3.3 4.2 4.7 3.6M218.5 436.5c1.3-.6 1.4-3.2.2-5.8-1.3-2.6-3.3-4.2-4.7-3.6-1.3.6-1.4 3.2-.2 5.8 1.2 2.6 3.3 4.2 4.7 3.6M220.6 419.2c1.3-.6 1.4-3.2.2-5.8-1.3-2.6-3.4-4.2-4.7-3.6-1.3.6-1.4 3.3-.2 5.9 1.2 2.6 3.3 4.2 4.7 3.5M226.7 433.2c1.4-.7 1.5-3.3.2-5.9-1.2-2.6-3.3-4.2-4.6-3.5-1.4.6-1.5 3.2-.2 5.8 1.2 2.6 3.3 4.2 4.6 3.6M136.6 407.9c1.4-.5 1.8-3 .9-5.8-1-2.7-2.8-4.6-4.2-4-1.4.4-1.8 3-.9 5.7 1 2.7 2.8 4.6 4.2 4M141.4 421.9c1.4-.5 1.8-3 .9-5.8-1-2.7-2.8-4.5-4.2-4-1.4.4-1.8 3-.9 5.7 1 2.8 2.8 4.6 4.2 4M145.1 404c1.4-.5 1.8-3 .9-5.8-1-2.7-2.8-4.5-4.2-4-1.5.4-1.8 3-1 5.7 1 2.7 3 4.6 4.3 4M150 418c1.3-.5 1.7-3 .8-5.8-1-2.7-2.8-4.5-4.2-4-1.4.4-1.8 3-.9 5.7 1 2.8 2.8 4.6 4.2 4.1M153 400.7c1.4-.5 1.7-3 .8-5.8-1-2.7-2.8-4.5-4.2-4-1.4.4-1.8 3-.9 5.7 1 2.8 2.9 4.6 4.3 4.1M157.8 414.7c1.4-.5 1.8-3 .8-5.8-.9-2.7-2.8-4.5-4.2-4-1.4.4-1.8 3-.9 5.8 1 2.7 2.9 4.5 4.3 4M160.5 398.7c1.5-.4 1.8-3 1-5.8-1-2.7-3-4.5-4.3-4-1.4.5-1.8 3-.9 5.8 1 2.7 2.8 4.5 4.2 4M165.4 412.7c1.4-.4 1.7-3 .8-5.7-1-2.8-2.8-4.6-4.2-4.1-1.4.5-1.8 3-.9 5.8 1 2.7 2.9 4.5 4.3 4M169.4 395.3c1.4-.5 1.8-3.1.9-5.8-1-2.8-2.8-4.6-4.2-4.1-1.4.5-1.8 3-.9 5.8 1 2.7 2.8 4.5 4.2 4M174.2 409.3c1.4-.5 1.8-3.1.9-5.8-1-2.7-2.8-4.6-4.2-4-1.4.4-1.8 3-.9 5.7 1 2.7 2.8 4.5 4.2 4M178.2 392.7c1.4-.4 1.8-3 .8-5.8-.9-2.7-2.8-4.5-4.2-4-1.4.5-1.8 3-.9 5.8 1 2.7 2.9 4.5 4.3 4M183 406.8c1.4-.5 1.8-3.1.8-5.8-.9-2.8-2.8-4.6-4.2-4.1-1.4.5-1.8 3-.8 5.8.9 2.7 2.8 4.5 4.2 4M186.8 390.3c1.4-.4 1.7-3 .8-5.7-1-2.8-2.8-4.6-4.2-4.1-1.4.5-1.8 3-.9 5.8 1 2.7 2.8 4.5 4.3 4M191.6 404.4c1.4-.5 1.8-3.1.8-5.8-.9-2.8-2.8-4.6-4.2-4.1-1.4.5-1.8 3-.9 5.8 1 2.7 2.9 4.5 4.3 4M194.3 387.1c1.4-.4 1.8-3 .9-5.8-1-2.7-2.9-4.5-4.3-4s-1.8 3-.8 5.8c.9 2.7 2.8 4.5 4.2 4M199.1 401.1c1.4-.4 1.8-3 .9-5.8-1-2.7-2.8-4.5-4.3-4-1.4.5-1.7 3-.8 5.8 1 2.7 2.8 4.5 4.2 4M202.9 384.7c1.4-.4 1.8-3 .8-5.8-.9-2.7-2.8-4.5-4.2-4-1.4.5-1.8 3-.8 5.8.9 2.7 2.8 4.5 4.2 4M207.7 398.7c1.4-.4 1.8-3 .9-5.7-1-2.8-2.9-4.6-4.3-4.1s-1.8 3-.8 5.8c.9 2.7 2.8 4.5 4.2 4M167.2 367c1.3-.1 1.8-4.3 1.2-9.3-.7-5-2.3-9-3.7-8.8-1.3.2-1.8 4.4-1.1 9.4.6 5 2.3 9 3.6 8.8M175.1 365.3c1.3-.2 1.9-4.4 1.2-9.4s-2.3-9-3.7-8.7c-1.3.1-1.8 4.3-1.1 9.4.6 5 2.3 8.9 3.6 8.7M183 363.3c1.3-.2 1.8-4.4 1.1-9.4s-2.3-9-3.6-8.8c-1.3.2-1.9 4.4-1.2 9.4s2.3 9 3.6 8.8M190 362c1.4-.3 2-4.5 1.2-9.5-.6-5-2.3-8.9-3.6-8.7-1.3.2-1.8 4.4-1.2 9.4.7 5 2.3 8.9 3.7 8.7M197 360.2c1.3-.1 1.8-4.3 1.1-9.4-.6-5-2.3-8.9-3.6-8.7-1.3.2-1.9 4.4-1.2 9.4s2.3 9 3.7 8.7"/><path fill="#febd11" d="M163.1 441.3h-.2c-9-9-21.3-10.9-28-6-8.9 6.4-5 22.6 0 31.2 1.3 2.1 10 16.1 21.2 13.8 8.3-1.8 15.1-12 13.9-24.5"/><path fill="#090b0b" d="M158 452.4c-4 0-6.8-1.4-7-3 0-.3 0-1 1-2.1-3-1.6-4.3-3.8-3.7-4.8.4-.9 2.1-1 4-.7-2.9-4.4-8.3-5.9-12.2-4-4.8 2.2-7 9.2-3.4 14.7a4.1 4.1 0 014.6-2.2c1.9.5 3.2 2.4 3 4.4l-5.9 4 3 .4.7 1.7-1.4 2.7 6.5-2c2 1.2 2.5 3.7 1.5 5.4a4 4 0 01-4.5 1.6c2.1 6.4 9 9.2 13.8 6.9 3.7-1.8 6-6.8 4.7-11.7-1 1.6-2.7 2.5-3.7 2.1-1.3-.4-2.1-2.9-.8-5.6-1.9.2-2.5-.5-2.7-.7-1-1.3-.3-4.3 2.5-7.1"/><path fill="#231f20" d="M231.3 481.2l3-2c-1.7-3.2-1.1-6.3 0-6.9 1.3-.6 3.8.7 5.5 3.5l4.8-.8c-4-7-10.6-9-13.3-7.3-2.5 1.6-3.2 7.5 0 13.5M244 477.7a17.5 17.5 0 00-10.9 5c-.8 1.1-.7 2.5 0 3.4.8.8 1.8.8 2 .8a12.3 12.3 0 0011.5-4.2c0-.2.8-1.5.3-3-.5-1.1-1.6-2-3-2"/><path fill="#ef3823" d="M242 480.5a9.5 9.5 0 00-5.8 2.8c-.4.6-.4 1.3 0 1.8.4.4 1 .4 1 .4a6.6 6.6 0 006.3-2.2c0-.1.4-.8.1-1.6-.2-.6-.8-1.1-1.5-1.2"/></g></svg>