<svg xmlns="http://www.w3.org/2000/svg" viewBox="0 0 692 671.7"><defs><clipPath id="a" clipPathUnits="userSpaceOnUse"><path d="M0 595.3h841.9V0H0z"/></clipPath><clipPath id="b" clipPathUnits="userSpaceOnUse"><path d="M0 595.3h841.9V0H0z"/></clipPath><clipPath id="c" clipPathUnits="userSpaceOnUse"><path d="M0 595.3h841.9V0H0z"/></clipPath><clipPath id="d" clipPathUnits="userSpaceOnUse"><path d="M0 595.3h841.9V0H0z"/></clipPath><clipPath id="e" clipPathUnits="userSpaceOnUse"><path d="M0 595.3h841.9V0H0z"/></clipPath><clipPath id="f" clipPathUnits="userSpaceOnUse"><path d="M0 595.3h841.9V0H0z"/></clipPath><clipPath id="g" clipPathUnits="userSpaceOnUse"><path d="M0 595.3h841.9V0H0z"/></clipPath><clipPath id="h" clipPathUnits="userSpaceOnUse"><path d="M0 595.3h841.9V0H0z"/></clipPath><clipPath id="i" clipPathUnits="userSpaceOnUse"><path d="M0 595.3h841.9V0H0z"/></clipPath><clipPath id="j" clipPathUnits="userSpaceOnUse"><path d="M0 595.3h841.9V0H0z"/></clipPath><clipPath id="k" clipPathUnits="userSpaceOnUse"><path d="M0 595.3h841.9V0H0z"/></clipPath><clipPath id="l" clipPathUnits="userSpaceOnUse"><path d="M0 595.3h841.9V0H0z"/></clipPath><clipPath id="m" clipPathUnits="userSpaceOnUse"><path d="M0 595.3h841.9V0H0z"/></clipPath><clipPath id="n" clipPathUnits="userSpaceOnUse"><path d="M0 595.3h841.9V0H0z"/></clipPath><clipPath id="o" clipPathUnits="userSpaceOnUse"><path d="M0 595.3h841.9V0H0z"/></clipPath><clipPath id="p" clipPathUnits="userSpaceOnUse"><path d="M0 595.3h841.9V0H0z"/></clipPath><clipPath id="q" clipPathUnits="userSpaceOnUse"><path d="M0 595.3h841.9V0H0z"/></clipPath><clipPath id="r" clipPathUnits="userSpaceOnUse"><path d="M0 595.3h841.9V0H0z"/></clipPath></defs><g clip-path="url(#a)" transform="matrix(1.33333 0 0 -1.33333 -225 704.9)"><path fill="#fcf8ed" d="M199.3 297.9a221.4 221.4 0 10442.9 0 221.4 221.4 0 00-443 0"/></g><g clip-path="url(#b)" transform="matrix(1.33333 0 0 -1.33333 -225 704.9)"><path fill="#dde9a7" d="M209 363.2c7.2-3.6 18-8.1 31.8-10.2a110 110 0 0165 10.9c42.1 22.3 41.7 52 67.7 52.6 3.3.1 19.4-4.9 51.6-15 19.6-6 17.4-5.6 19.6-6.1 8.1-2 27.5-5.3 90.8 9.8 20.5 4.8 26.3 6.4 38.2 6.7a133 133 0 0039.9-5.2 222.7 222.7 0 01-72 76.8c-12.6-4-31-9.3-53.5-13.8-12.6-2.5-87.2-17.3-94.5 0-3.2 7.6 9.1 15.7 5.8 30-2 8.1-8 13.8-12.7 17.3a227 227 0 01-112.9-53.6 226.5 226.5 0 01-64.7-100.2"/><path fill="#e0ad25" d="M213.1 375c34-17.7 57.8-12.6 66.4-10 22.8 6.7 43.5 26 48 30.4 11.7 11.1 16.5 19.7 31 26.3a70 70 0 0027.4 6.2c17.3.3 25.6-6.2 41.3-10.9 13.6-4 26.8-3.5 53.1-2.5 38 1.4 44.8 7.4 74.3 7.7 14.6.2 32.6-1 53.2-5.7a226.1 226.1 0 01-54.8 59c-49-12-88.9-18.9-117.3-23-13.6-2-42.6-5.9-48.8 5.8-4.7 9 7.3 20.6 2.5 37.3-2.6 9.3-9 15.5-13.5 19.1a223 223 0 01-97.6-47.4 223.2 223.2 0 01-65.2-92.4"/></g><g clip-path="url(#c)" transform="matrix(1.33333 0 0 -1.33333 -225 704.9)"><path fill="#b1dece" d="M544.4 114.2c-29.5 14.6-35.2 26.5-35.2 34.5 0 21.1 39.5 25.2 61.2 64.6 9.4 17.1 19.3 47.8 5.8 63.9-14.1 16.9-47.7 10.6-58.5 8.5-30.8-6.1-36.1-20-59.6-19.7a75 75 0 00-44.7 17.8c-34.3 26.9-47.6 79.7-32.7 92.9 5.1 4.5 14.1 3.2 32.1.7 27.6-3.8 34.3-11.2 52.4-12.4 7.8-.5 21.4 3.6 48.3 12 42.5 13.4 50.7 17.9 68.1 18.6 17.6.8 31.9-2.8 40.6-5.6l3.9-9c27-66.4 10.3-130 7-142.3 0 0-18.8-67.3-69-109.7a233.8 233.8 0 00-19.6-14.8"/><path fill="#009444" d="M552.6 120c-18.3 8.3-23.6 17-24.8 23.6-5.1 28.3 58.3 43 69.7 95.3 4.8 22.2.3 51.3-17.4 63.8-6.2 4.4-14.6 7.2-33 6.2-55.5-3-69.5-34.1-100.2-29.8-39.4 5.6-69.6 63.4-60.6 76 2.4 3.3 8.1 3.8 13 4.1 12.6 1 19.2-5.5 32.5-9.6 0 0 13-4 27.9-3.1 16.2 1 22.8 7.4 51.5 19.7 0 0 13.5 5.8 28.6 11.2 18 6.3 45.6 11.2 86.5 3a221.4 221.4 0 0015.6-92.6l-.1-2.5a221.2 221.2 0 00-67.4-146.8c-5-4.8-10-9-10-9a205 205 0 00-11.8-9.5"/></g><g clip-path="url(#d)" transform="matrix(1.33333 0 0 -1.33333 -225 704.9)"><path fill="#e9d0ba" d="M490 87.4c-17.7 1.7-42 5.8-45 18-3.4 13 21.5 21.2 31.3 48.3 9.4 25.7 4 64.7-23.2 84.4-16.5 12-43.2 18.2-62 8.1-16.3-8.8-21.9-27.6-34.8-26-3.7.6-3.6 2.2-17 9-14 7-15.2 5.9-17.9 8.6-8.9 9.4 3.3 25 1.2 44.8-2.8 27.1-30.8 44-33.6 45.7-26 15.2-61.3 11.5-88.8-9.4-.7-7.5-1.3-18.2-.7-30.8 4.6-89.8 66.6-148.9 71-153 4.2-3.8 73.7-66 170.7-57.7 20.4 1.7 37.2 6.1 48.9 10"/><path fill="#bd7330" d="M464.9 80.7c-19.7 3.2-38.7 8.8-40.5 19-2.2 12 21 17.7 31.8 41.6 11 24.3 6.9 62.2-17.4 79.4-12 8.4-31.4 13.8-46.9 7-16.8-7.6-18.8-25.1-31-24.8-9.1.2-9.8 10.4-26.6 18.2-13.7 6.5-19.7 2.7-25 8.8-7.2 8.5 1 19.6-.2 36a63.7 63.7 0 01-38 50.8c-23 9.6-51.5 2.8-71.8-17v-4a186.2 186.2 0 0111-67.2c1.9-5.1 4-9.8 8-19a263.2 263.2 0 0114.5-28.8c4.6-7.6 9.8-14.9 15.5-21.9l2-2.4a238.6 238.6 0 0129.8-29.6 222 222 0 0169-38.7s31.5-10.8 66.1-11.6h9.2a227 227 0 0140.5 4.2"/></g><g clip-path="url(#e)" transform="matrix(1.33333 0 0 -1.33333 -225 704.9)"><path fill="#9d2e58" d="M273.8 477c.7 0 7.4-.7 9 3 1.1 3-1.7 6.4-1.9 6.7l-7.5-4.6-3 3.7 11 7.4c.3 0 6.6-2 8.1-8 1.5-5.8-2.4-10.4-3.4-11.4-.6-.5-2.1-2.3-4.5-3.4-6.6-3.1-17.6-.5-23.3 7.4-4.9 6.6-5.8 16.8-.4 23.7 3.8 4.7 9.1 6 11.1 6.4l2.3-6c-.4-.1-7-1.7-9.1-7.8-1.5-4.3.4-8.1 1-9.4.2-.3 3.6-7 10.6-7.7"/><path fill="#7357a4" d="M331.2 508.8c-.6 1.4-4 2.4-8.2 1l3.5-6.6c3.3 1.6 5.1 4.2 4.7 5.6m-7.8 13.7c-.6 1.5-4 2.5-8.2 1l3.5-6.5c3.3 1.6 5.1 4.2 4.7 5.5m-1.7-26.5L308 523.2c7 6.7 15.8 6.7 19.3 2.8 3-3.3 1.5-9 1.3-10 4 1.6 8.5 0 10.3-3.5 1.6-3 1.1-6.8-1.3-9.4a788 788 0 00-16-7.1"/><path fill="#355da5" d="M334.5 442.7c2 4.6 0 9-.6 10.2-3.3 6.5-10.7 7.3-11.4 7.4-7.1.7-11.9-4.1-12.4-4.7 4-6.8 8.2-13.6 12.4-20.4a13 13 0 0112 7.5M322.7 428L305 457.3c.9.9 7.7 7.7 17.8 6.7 1.1 0 11.7-1.3 16.4-10.5 1-1.8 3.7-8 1-14.7a18.6 18.6 0 00-17.4-10.8"/><path fill="#ca1e47" d="M415.5 450.4h7.1c.7-4.9 4.4-8.1 7.5-8 3.7.1 7.8 5 6.5 11.2l1.7 3.2c3 .4 5.4 2.2 6.1 4.5 1 3.4-1.5 7.8-6.3 8.8l1.8 3.8c5.6 0 10.5-3.6 12.1-8.7 1.8-5.5-.7-11.8-6-14.7 0-1.5 0-6-3.2-9.8-3.9-4.6-9.6-5-11.8-5.1-2.2-.1-6.3-.4-9.9 2.2-5.8 4.1-5.7 11.8-5.6 12.6"/></g><path fill="#93c83d" stroke="#231f20" stroke-miterlimit="10" stroke-width="5.33332" d="M71.6 182.3l-10-9"/><g clip-path="url(#f)" transform="matrix(1.33333 0 0 -1.33333 -225 704.9)"><path fill="#56b347" d="M209 391l12.2 14.6c3 4.6 2 10.6-2 13.4a9.6 9.6 0 01-11-.4c-1.3 2-3.9 5.3-7.8 5.6h-.7c-5-.2-12.7-9-10.3-16.4 1.3-4 5-6 6.4-6.7-.2-.8-.8-3.2.5-5.8 1.6-3.4 5.1-4.3 6-4.6 3.1-.8 5.6 0 6.7.4"/><path fill="#93c83d" stroke="#231f20" stroke-miterlimit="10" stroke-width="4" d="M276 406.3l-7.5 6.7"/><path fill="#56b347" d="M261.7 406l13.2 13.9a11 11 0 013.4 14c-2 3.6-6.2 5.6-10.6 5a18 18 0 01-8.8 10.2c-5.7 2.8-14 2.6-18.9-2.8-6.2-6.7-2.6-16.3-2.3-17.2 1.4-3.6 3.6-6 5-7.1-.7-3.3-.2-5.8.2-7 1.7-5.7 7.4-9.8 13.1-10 2.4 0 4.4.6 5.7 1M319.2 421.4l24.3 10.8c2.9 2.8 2.4 7 .2 8.5-1.6 1.2-4.4 1-6.5-.7a6.4 6.4 0 01-8.6 3.2 6.4 6.4 0 01-3-7.9c-1.3 2.3-3.9 3.3-5.7 2.5-2.1-.9-3.3-4.2-1.6-7-1.8 1.2-3.9 1.5-5.3.6-2.5-1.4-2.6-5.7-.6-8a6.5 6.5 0 016.8-2"/><path fill="#93c83d" stroke="#231f20" stroke-miterlimit="10" stroke-width="4" d="M377 452.2l-.4 10.1"/><path fill="#56b347" d="M366 459.3l21 1c1 .6 4.7 3.3 5.9 8.5 1.3 6-1.8 10.5-2.3 11.2.1 1.2.4 5.4-2.3 9.3a12.9 12.9 0 01-4.5 3.9c-.7 4.2-3.5 7.7-7.3 9a11.4 11.4 0 01-13.9-6c-1.5-3.6-.4-7 0-8a7 7 0 01-3.2-4.8 7 7 0 012.1-6c-.2-.2-4.3-6.6-1-12.8 1.6-3.2 4.3-4.7 5.5-5.3"/><path fill="#93c83d" stroke="#231f20" stroke-miterlimit="10" stroke-width="4" d="M508.1 457.4l3.1 9.6"/><path fill="#56b347" d="M506.6 468.4l14.8-4c.6.3 4.8 2.3 6.4 7.2 1.7 5.4-1 9.8-1.4 10.4.7.5 4 3 4.5 7.2.5 3.8-1.1 9.2-5.2 10.2-3.4.8-6.5-2.1-7-2.5-.3 1-1.3 3.4-3.5 4.3-3.8 1.4-9.1-2.3-10.4-6.9-1-3.8 1.1-7.2 1.6-8a10.2 10.2 0 01.2-17.9"/><path fill="#93c83d" stroke="#231f20" stroke-miterlimit="10" stroke-width="4" d="M552.6 468.7l5.2 8.7"/><path fill="#56b347" d="M553.7 479.8l13.5-8.8c7.4 0 13.4 4.9 14.7 11 1.3 6.7-3.5 11.8-4 12.3a10 10 0 014.6 10.4c-.6 3.3-3.3 6.8-7.5 7.4a9 9 0 01-9.3-5 7.7 7.7 0 01-9-10c-.5-.2-5.1-1.2-7-5.3-1.7-4-.2-9 4-12M559.7 430.4l-15.2 17c3.4 6.8 10.7 8.6 14.3 6.2 2.6-1.8 3.7-6 2.7-10.2 1 .1 2.8.2 4.4-.9 3-2.1 3.6-8 .5-10.8-2.5-2.3-6.3-1.4-6.7-1.3"/><path fill="#93c83d" stroke="#231f20" stroke-miterlimit="10" stroke-width="4" d="M527 367.4l8 6.4"/></g><g clip-path="url(#g)" transform="matrix(1.33333 0 0 -1.33333 -225 704.9)"><path fill="#56b347" d="M531.8 377.5c4-7.7 11.3-11 14.5-12.2 2.6-1.6 6-1.4 8.3.6 2.4 2 3.2 5.3 2 8.2.4 0 2.7-.1 4.5 1.6a6.1 6.1 0 011.2 6.7 12 12 0 015 8.8c0 .6.4 7-4.5 9.6-3.5 1.8-8.2.8-11.3-2.7a9 9 0 01-7.1 1.3c-4-1-5.6-4.3-5.9-4.8-1.2 0-5.8-.2-8.2-3.4-3.3-4.4.2-11.2 1.5-13.7M571.4 123c-5.9-4.7-9-10.6-10.5-14.9a7 7 0 01.6-8.6 7 7 0 018.3-1.4c-1.8-2.5-1-6 1.5-7.5s6-.4 7.2 2.5a17 17 0 017.2-7.4c6.8-3.6 17.9-2.6 20.6 4 2 4.7-.7 11.7-7 16l.4.7c1.5 2.6-.1 6.6-2 8.8-2 2.4-4.7 3.1-5.9 3.4.1 1.8.4 7.7-3.1 10.1-5.5 3.8-15.5-4.3-17.3-5.7"/><path fill="#93c83d" stroke="#231f20" stroke-miterlimit="10" stroke-width="4" d="M561 127l7-7.3"/><path fill="#56b347" d="M633.9 357.3c6 .5 10.1 4 10.2 7.6 0 .5 0 2.4-2 4.5.5.8 2 4.1.9 7.8-1.4 4.2-5.6 7.1-10.5 7.3 0 1-.1 2.4-1 3.6-1.8 2.2-5.5 2.8-9 1.1a185.4 185.4 0 0011.4-31.9"/></g><g clip-path="url(#h)" transform="matrix(1.33333 0 0 -1.33333 -225 704.9)"><path fill="#567ec0" d="M557.6 244.7a9 9 0 00-6.2-1.7c-3.1.4-6.8 2.7-6.7 5.3.2 2.7 4 4.5 7 4.8 2.6.1 4.7-1 5.5-1.6l6.9 3.4.4-14.3-7 4.1M531 208.4c0 .2-.8 3.7 1.6 6.1 1.6 1.6 4.6 2.7 6.9 1.3 2.2-1.5 2.4-4.6 1.6-6.7a6.9 6.9 0 00-4.1-4l-.7-7.5-12.5 7 7.2 3.8M509.4 261c0 .3 1 3.8 4.3 4.8 2.1.7 5.4.3 6.7-2 1-2.3-.2-5.1-2.2-6.5a6 6 0 00-6-.2l-3.4-5.6-7.5 9.4 8.1.1"/><path fill="#231f20" d="M556 245.4a9 9 0 00-6-1.8c-3.2.4-6.9 2.8-6.7 5.4 0 2.6 4 4.5 6.9 4.7 2.6.2 4.7-1 5.5-1.5l7 3.3.3-14.3-7 4.2M529.5 209c0 .3-.8 3.8 1.7 6.2 1.6 1.6 4.5 2.7 6.8 1.2 2.2-1.4 2.4-4.6 1.7-6.6a6.9 6.9 0 00-4.2-4l-.7-7.6-12.5 7 7.2 3.9M508 261.7c0 .3 1 3.7 4.2 4.7 2.2.7 5.5.4 6.7-2 1-2.2-.2-5-2.2-6.4a6 6 0 00-6-.2l-3.4-5.6-7.4 9.3 8 .2"/></g><g clip-path="url(#i)" transform="matrix(1.33333 0 0 -1.33333 -225 704.9)"><path fill="#b35e27" d="M642 287.8l28.8-.2 14.4 30.6-20 28.7-27.7-4.9a421 421 0 004.4-54.2"/><path fill="#85341b" d="M639.8 324c4.8 2.3 9.8 2.4 12.8 0 .5-.4 2-1.5 2.6-3.6.9-2.9-.5-5.5-1-6.4-3.2-6.2-12.6-6.2-13-6.2"/><path fill="#e03f28" d="M673.4 283.7l14.3 29-.5 10.8L665 352l-3.7-3.1 21-26.6-.1-8.9-13.7-28.6 4.8-1"/><path fill="#04060b" d="M668.3 321.2v-9.5a2.8 2.8 0 01-1.6-2.9 2.7 2.7 0 014.6-1.3 2.6 2.6 0 014.1 1.3c.3 1.3-.6 2.9-2.3 3.4l-.8 9.5c1.3 0 2.4.8 2.6 2 .3 1.3-.9 2.5-2.1 2.8-1 .2-2-.2-2.7-1-.7.8-1.8 1-2.8.7-.8-.3-1.4-1-1.5-1.8-.2-1.3.8-2.7 2.5-3.2"/></g><g clip-path="url(#j)" transform="matrix(1.33333 0 0 -1.33333 -225 704.9)"><path fill="#fff" d="M599 262.6c2.1-2 5.3-2.4 7.7-1a6.4 6.4 0 012.8 7.6 4.1 4.1 0 013.7-2.5c1.8 0 3.4 1.3 3.9 3.1-.1 1.2-.5 3.2-1.7 5.2-1 1.7-4 5.8-6.4 5-2.2-.6-2.7-4.3-2.7-4.8a10 10 0 01-9.5 1 76.5 76.5 0 002.2-13.6"/><path fill="#d8d4d5" d="M610.9 267.5c4.2-5.3 6.7-7.7 7.5-7.3.7.5 0 3.1-2 8.1 4.2-.5 6.5-.4 6.8.5.4 1-2.2 3-7.8 6.2a6 6 0 00-.4-4.7 6 6 0 00-4.1-2.8"/><path d="M613.6 274.3a.7.7 0 10-1.4 0 .7.7 0 001.4 0"/></g><g clip-path="url(#k)" transform="matrix(1.33333 0 0 -1.33333 -225 704.9)"><path fill="#393535" d="M590.5 156l9.7 12.7c4.5-1.6 7.2-3.8 8.8-5.6 1.8-2 2-3.3 4.4-5.2 3.3-2.8 6-2.8 6.1-4 .1-1.6-5.1-3.6-10-4-3-.4-10.2-.3-19 6"/><path fill="#2a3330" d="M596.7 136.3c.6 1 1.2 2.7.6 4.2-1 2.4-4.2 2.2-5.8 4.4-1 1.4-1.4 4 1.3 9.5l2-1.3c-2-3.7-1.8-5.8-1.2-7 1.2-2.1 4.1-1.8 5.4-4 1.2-2 .4-4.6-.5-6.6a1 1 0 00-1.5-.5 1 1 0 00-.3 1.3"/><path fill="#161515" d="M612.6 144.6c-1-.2-1.9 1.1-2.3 1.7-.4.6-1.1 1.7-1.3 3.5l4.4.7a5 5 0 00.8-3.8c0-.3-.5-2-1.6-2.1"/><path d="M612 153a1 1 0 10-1.8 0 1 1 0 001.9 0"/></g><g clip-path="url(#l)" transform="matrix(1.33333 0 0 -1.33333 -225 704.9)"><path fill="#04060b" d="M521.5 339.1a4.6 4.6 0 109.3 0 4.6 4.6 0 00-9.3 0M518.4 331.6a2 2 0 104.1 0 2 2 0 00-4.1 0M516 335.8a1.3 1.3 0 102.6 0 1.3 1.3 0 00-2.6 0M516.5 341.9a1.2 1.2 0 102.3 0 1.2 1.2 0 00-2.3 0M546.8 329a4.6 4.6 0 109.3 0 4.6 4.6 0 00-9.3 0M546.2 320.4a2 2 0 104 0 2 2 0 00-4 0M542.2 323.5a1.3 1.3 0 102.7 0 1.3 1.3 0 00-2.7 0M540.8 327.7a1.2 1.2 0 102.3 0 1.2 1.2 0 00-2.3 0M504.1 318.3a4.6 4.6 0 109.3 0 4.6 4.6 0 00-9.3 0M500.3 311.3a2 2 0 104 0 2 2 0 00-4 0M499.8 317a1.3 1.3 0 102.6 0 1.3 1.3 0 00-2.6 0M501.3 321.6a1.2 1.2 0 102.4 0 1.2 1.2 0 00-2.4 0"/></g><g clip-path="url(#m)" transform="matrix(1.33333 0 0 -1.33333 -225 704.9)"><path fill="#04060b" d="M588 329.5a3 3 0 10-6 0 3 3 0 006 0M588 350a3.1 3.1 0 10-6.2 0 3.1 3.1 0 006.3 0"/><path fill="#c8c7c9" d="M587.9 328.9V351l14.5 8.1 7-32.7z"/><path fill="#c8c7c9" stroke="#231f20" stroke-miterlimit="10" d="M592 353.4l.1-25M596.4 356.3l.1-28.5M601 358.4l1-31M608.2 332.2l-20.3.6M606.7 339h-19M605.3 345.5h-17.6"/><path fill="none" stroke="#c8c7c9" stroke-miterlimit="10" stroke-width=".8" d="M587.7 328.6V351l14.7 8.3 7-33.2z"/><path fill="#04060b" d="M600.4 358.8l.5 7.4c1.4 2 3.2 2.8 4 2.2.7-.4.8-1.6.4-3a9 9 0 01-2.4-6.7l-2.5.1"/></g><g clip-path="url(#n)" transform="matrix(1.33333 0 0 -1.33333 -225 704.9)"><path fill="#b66027" d="M440.5 303a62.5 62.5 0 00-13.5 27.6 25.7 25.7 0 0014.5 3 67.8 67.8 0 0012.2-24.3c-.4-.9-1.9-3.8-5.2-5.5-3.7-1.8-7.1-1.1-8-.9"/><path fill="#020305" d="M453.7 309.3a23.6 23.6 0 00-13.8 21.2l1.6 3.1a67.7 67.7 0 0012.2-24.3"/><path fill="#020305" d="M435.2 333.2c-2 .8-3.7 1-4.9 1-2 0-3.3-.4-4 .4-.5.6-.4 1.5-.1 2.2.2.4.8 1.2 4.1 1.5 3.6.3 6 .5 8.4-1.2.7-.5 1.9-1.5 2.8-3.5"/><path fill="#994e22" d="M428.1 326c-.7-.2-8-1.3-8.4 0-.4 1.2 6.6 4.3 7.3 4.6M440.5 303c-1.3-.8-3.3-1.8-6-2.3-2.9-.6-6.9-.6-7.1.4-.3 1.1 4.4 3.3 6 4 1.6.8 3.1 1.3 4.1 1.7"/><path fill="#b66027" d="M448.5 303.8l5.2-1.4c.3-.8 3.8-9.2 6.2-8.7 1.9.4 2.7 5.7 2.4 13l1.4 1.8c.8.7.8 1.9.2 2.5-.6.6-1.6.7-2.3.2l-1.7-2h-6.2a15.1 15.1 0 00-5.2-5.4"/><path fill="#994e22" d="M460 309.3l2.3-2.5c1.6 1.2 2.4 2.7 2 3.7 0 .2-.2.4-.4.5-.4.4-.8.5-1 .6-1 .2-2.3-.7-3-2.3"/><path fill="#231f20" d="M460.1 306c0-.3-.6-.6-1.3-.6-.7 0-1.3.3-1.3.7 0 .4.6.7 1.3.7.7 0 1.3-.3 1.3-.7"/></g><g clip-path="url(#o)" transform="matrix(1.33333 0 0 -1.33333 -225 704.9)"><path fill="#f2aa1d" d="M628.3 201.3l-7.4 2a218.4 218.4 0 0118.6 60.4l9.7-1.4z"/><path fill="#0f0e0d" d="M620 201.3l13.7-6.7a4.9 4.9 0 012.9 3.4l-14.7 7.5a76.3 76.3 0 00-2-4.2M626 214.8l15-4.2a4.9 4.9 0 012.3 3.8l-15.6 4.8a440.6 440.6 0 01-1.7-4.4M630.6 227l16.2-.7a4.9 4.9 0 011.2 4.2l-16 1.2a105.4 105.4 0 00-1.4-4.6M634.5 239.9l16.2-.2a5 5 0 011 4.3h-16.4a21.5 21.5 0 00-.8-4.1M636.9 249.6h16.5a4.9 4.9 0 011 4.2l-16.6.3a164.4 164.4 0 00-1-4.5M639 260.4l15.5-.4a4.9 4.9 0 011.2 4.2l-16 .4a31.4 31.4 0 01-.7-4.2"/><path fill="#0f0e0d" d="M622.8 193.6c0-.7-.2-2.4.7-3.2h.1c1.1-.8 2.8-.5 3.7.7a465.1 465.1 0 0125.3 75.6 3 3 0 01-2.9 2.3c-1.5 0-2.3-1.3-2.4-1.4a248.5 248.5 0 00-6-23c-4.4-14-11.2-33-12.2-35.6-3.7-7.8-6-13.7-6.3-15.4"/></g><path fill="#93c83d" d="M338.4 500.2l.5-13.5z"/><path fill="none" stroke="#231f20" stroke-miterlimit="10" stroke-width="5.33332" d="M339 486.7l-.6 13.5"/><g clip-path="url(#p)" transform="matrix(1.33333 0 0 -1.33333 -225 704.9)"><path fill="#56b347" d="M422.9 154.4c-5.8 1.5-13.4-.2-14.5-3.8-.3-1-.3-2.6 2.3-5.5-1 0-3.7-.3-5.7-2.5l-1-1.4c-2.1-3.8 1-9.5 1.4-10-.2-1.3-.7-5.3 1.4-9.5.7-1.2 2.8-5.3 7-6.6 6.4-2 13.8 3.9 16.7 10a17 17 0 011.5 7.3 13 13 0 013.6 8c.2 7.1-6.7 12.6-12.7 14"/><path fill="#93c83d" stroke="#231f20" stroke-miterlimit="10" stroke-width="4" d="M414.9 76.5l-.4-10.1"/><path fill="#56b347" d="M412.6 67.8c-7 .2-15.8-2.2-16.2-5.9-.2-1.4 1-2.7 2.1-3.6-.6-1.3-1.3-3-2-5.2-.7-2.6-1.7-6.1-1.2-10 .6-4.6 3-7.6 5.8-11.3 3.7-4.6 5.5-6.9 8-7 6.2 0 10.6 12.5 11 13.7 1 3 1.4 5.5 1.6 7.3 6 4.5 8.5 11.3 6.4 16-2.6 5.7-11 6-15.5 6M388.8 189.7l19.3-12.1c-1.2-4.8-5.4-7.9-9.6-7.6-4.5.4-7 4.6-7.1 5-.6-.2-3.7-1-6 .9-3 2.1-2.9 6.6-1.5 9.4a9 9 0 005 4.4M367.2 82.9a394.7 394.7 0 0022.5-4 7.8 7.8 0 00-.7-8.5c-2.4-2.9-7.2-3.4-10.8-.8a9.6 9.6 0 00-8.4-.5 8.9 8.9 0 00-5.2 9c.4 2.5 2 4.1 2.6 4.8M264.1 243l11-19.5a9.1 9.1 0 00-10.4-3.6 9 9 0 00-5.9 8c-2.3 0-4.3 1.4-5.1 3.3-1 2.6.4 6.1 3.7 7.5-.8 2.4.4 4.9 2.3 5.6 1.4.5 3.2 0 4.4-1.2"/><path fill="#93c83d" stroke="#231f20" stroke-miterlimit="10" stroke-width="4" d="M241.6 271.6l-10.1-1"/><path fill="#56b347" d="M234.5 271c-1 4.6-4.5 11.4-9.5 11.6-2 0-3.7-1-4.8-1.8-.8.6-2.9 2.1-5.6 2-3.8-.1-7.4-3.4-8.5-8.1-1.4 0-4.7-.2-8-2.5-.7-.4-6-4.1-6-8.8.3-6.2 10.5-11.4 18.9-10.6 3.3.3 6 1.6 7.7 2.6 4.3-4.2 7.4-3.8 8.2-3.7 6 1 9.2 11.5 7.6 19.2"/><path fill="#93c83d" stroke="#231f20" stroke-miterlimit="10" stroke-width="4" d="M251.6 155l-7.6-6.7"/><path fill="#56b347" d="M246.3 150.1c-3.5 3.6-10.4 7.6-14.8 4.9a8 8 0 01-3.2-5c-.3.2-3.5 1.6-6.2.1-2.9-1.6-4.2-5.8-2.5-9.9a14 14 0 01-7.9-7.4c-1.8-4.1-1.6-9.5 1.2-12.8 5-6 17-3.8 23.7 1.5 2.8 2.3 4.5 5 5.4 7 5.5-1 7.8.8 8.5 1.4 4.4 4 1.4 14.6-4.2 20.2"/><path fill="#93c83d" stroke="#231f20" stroke-miterlimit="10" stroke-width="4" d="M286.3 122.2l-5.4-8.7"/><path fill="#56b347" d="M280.6 114.2c-.8.5-9.7 5.8-13.6 2.2-1.6-1.5-1.7-4-1.6-5.6a9 9 0 01-5.5-2.5 9.5 9.5 0 01-2-9.6c-1.2-1-4.3-4-5.1-8.7-1.2-6.7 2.6-14.3 8.3-16 7.5-2.4 14.9 6.3 17.7 9.6 2.6 3 4.2 6 5.1 8 2.2 1 5.6 2.7 6.7 6 2.3 6.4-5.1 13.6-10 16.6"/></g><g clip-path="url(#q)" transform="matrix(1.33333 0 0 -1.33333 -225 704.9)"><path fill="#803419" d="M340.4 110.7l8-4.6c.4-2.9 2.7-4.4 4-4 1.3.2 2.4 2.2 2 4.5a11 11 0 015.5 4.1 11 11 0 012 7.2c2.3-.8 4.5-.2 5 .8.6 1.2-.5 3.8-3.5 5 3.8 13 4.6 20 2.2 21.3-1.2.6-3.2-.3-6-2.7l-5.5 3c-.6 4.7-1.5 7.1-2.7 7.3-2.3.3-5.6-7-10-22.1-2.4 1.3-5 .2-5.5-1.2-.4-1.3.6-3.3 2.7-4.3a6.6 6.6 0 01-2.4-4.5c-.2-2.2.8-3.7 1.2-4.2-2.6-2-2.9-4.9-1.9-6 1-.9 3-.8 4.9.4"/><path fill="#231f20" d="M354.2 112.6a2 2 0 10-3.9 0 2 2 0 003.9 0M343.8 116.5a2 2 0 10-3.9 0 2 2 0 004 0M351 117.7c-.4-.7-1.7-.8-3-.2-1.2.5-2 1.6-1.6 2.3.3.7 1.6.8 2.8.2 1.3-.5 2-1.5 1.7-2.3"/><path fill="#803419" d="M303 133.6l10.5-8.4c-.6-2.4.8-4.6 2.4-5 1.7-.4 4.3 1.3 4.5 4.3.6 0 3.9.5 6.2 3.5 2.5 3 2 6.5 2 7 2.3-.6 4.2.4 4.6 1.5.3 1.1-1 3.2-3.6 3.6 10.4 11.7 14.8 18.6 13 20.8-1 1.2-4 .9-9-1l-8 6.5c-.4 4.8-1.2 7.4-2.7 7.7-2.8.7-8-7.5-15.2-24.7-2 1-3.9.8-4.5-.1-.7-1-.2-3.4 2.2-4.8a6.8 6.8 0 01-4.4-5.7c-2-.6-3.3-2.2-3.1-3.3.2-1.3 2.4-2.7 5.1-2"/><path fill="#231f20" d="M318.6 131a2 2 0 10-3.8 1.1 2 2 0 003.8-1.1M309.7 137.7a2 2 0 10-3.7 1 2 2 0 003.7-1M316.9 136.8c-.5-.6-1.8-.3-2.8.6-1 .9-1.5 2-1 2.7.5.6 1.8.3 2.8-.6 1-.9 1.5-2 1-2.7"/><path fill="#803419" d="M274.6 160.6l7-7c-1.1-2.7.2-5.3 1.8-5.7 1.4-.4 3.7 1 4.3 3.5 1 0 4.3 0 7.5 2.1 4.2 3 4.9 7.8 5 8.6 2.2-.7 4.2.3 4.5 1.4.3 1.1-1 3.2-3.5 3.6 8.3 9.5 11.7 15.3 10.2 17.2-.8 1-3 1-6.7-.2l-4.9 4.5c1 4.2 1 6.7 0 7.4-2.2 1.4-8.3-3.4-18.3-14.3-1.6 1-3.6.4-4.4-1-1-1.5-.3-3.8 1.6-4.6-.4 0-3.7-.5-5.6-3.6a7.8 7.8 0 01-.5-6.7c-3-1.5-4.5-3.8-4-4.8.4-1 3-1.5 6-.4"/><path fill="#231f20" d="M289 158.7a2 2 0 10-3.8 1 2 2 0 003.8-1M280 165.2a2 2 0 10-3.8 1 2 2 0 003.8-1M287.1 164.5c-.4-.6-1.7-.4-2.8.5-1 .9-1.5 2-1 2.7.5.6 1.7.4 2.8-.5 1-.9 1.5-2 1-2.7"/></g><g clip-path="url(#r)" transform="matrix(1.33333 0 0 -1.33333 -225 704.9)"><path fill="#faa21a" d="M232.9 181l-30.1-17.3-29 17 5 33.6 31.9 13.7a338.6 338.6 0 0122.2-47"/><path fill="#f15d22" d="M210.5 160.1l-3-5-38.8 24.3 6.6 44.6 5.2-1.1-3.8-40.8z"/><path fill="none" stroke="#231f20" stroke-miterlimit="10" d="M222.1 201l-13.6-7.4 4.9-9.8L227 191"/><path fill="#231f20" d="M217 194.4a1.6 1.6 0 10-3.2 0 1.6 1.6 0 003.2 0"/></g></svg>