<svg xmlns="http://www.w3.org/2000/svg" viewBox="0 0 776.5 752.7"><defs><clipPath id="a" clipPathUnits="userSpaceOnUse"><path d="M0 595.3h841.9V0H0z"/></clipPath><clipPath id="b" clipPathUnits="userSpaceOnUse"><path d="M0 595.3h841.9V0H0z"/></clipPath><clipPath id="c" clipPathUnits="userSpaceOnUse"><path d="M0 595.3h841.9V0H0z"/></clipPath><clipPath id="d" clipPathUnits="userSpaceOnUse"><path d="M0 595.3h841.9V0H0z"/></clipPath><clipPath id="e" clipPathUnits="userSpaceOnUse"><path d="M0 595.3h841.9V0H0z"/></clipPath><clipPath id="f" clipPathUnits="userSpaceOnUse"><path d="M0 595.3h841.9V0H0z"/></clipPath><clipPath id="g" clipPathUnits="userSpaceOnUse"><path d="M0 595.3h841.9V0H0z"/></clipPath><clipPath id="h" clipPathUnits="userSpaceOnUse"><path d="M0 595.3h841.9V0H0z"/></clipPath><clipPath id="i" clipPathUnits="userSpaceOnUse"><path d="M0 595.3h841.9V0H0z"/></clipPath><clipPath id="j" clipPathUnits="userSpaceOnUse"><path d="M0 595.3h841.9V0H0z"/></clipPath><clipPath id="k" clipPathUnits="userSpaceOnUse"><path d="M0 595.3h841.9V0H0z"/></clipPath><clipPath id="l" clipPathUnits="userSpaceOnUse"><path d="M0 595.3h841.9V0H0z"/></clipPath><clipPath id="m" clipPathUnits="userSpaceOnUse"><path d="M0 595.3h841.9V0H0z"/></clipPath><clipPath id="n" clipPathUnits="userSpaceOnUse"><path d="M0 595.3h841.9V0H0z"/></clipPath><clipPath id="o" clipPathUnits="userSpaceOnUse"><path d="M0 595.3h841.9V0H0z"/></clipPath><clipPath id="p" clipPathUnits="userSpaceOnUse"><path d="M0 595.3h841.9V0H0z"/></clipPath><clipPath id="q" clipPathUnits="userSpaceOnUse"><path d="M0 595.3h841.9V0H0z"/></clipPath></defs><g clip-path="url(#a)" transform="matrix(1.33333 0 0 -1.33333 -191 772)"><path fill="#30c4ee" d="M493.5 270a84.8 84.8 0 01-32 90c-36.3 25.6-77.9 9-80.6 8l-31.2 60.4 23.4 11.7c-5 21.3-9.8 42.6-14.7 64 81.7 20 168-7.2 222.6-70.5a223.4 223.4 0 0039.8-223.1l-12 5 4.4 14.7-14.7 10-12.6-16.4-8.5 3.6c1 4 2.2 8.1 3.4 12.2l-15.8 9.7-7.5-7.5-7 5 2.9 11.8-18.7 3.2-12.8-16.1-11.1 6.6-.8 11.7-16.5 6"/></g><g clip-path="url(#b)" transform="matrix(1.33333 0 0 -1.33333 -191 772)"><path fill="#507cbe" d="M620.8 210.5l-12 5 4.4 14.7-14.7 10-12.6-16.4-8.5 3.6c1 4 2.2 8.1 3.4 12.2l-15.8 9.7-7.5-7.5-7 5 2.9 11.8-18.7 3.2-13-16.1-11 6.6-.7 11.7-16.5 6a84.9 84.9 0 00-64.4-57.5c-45.3-8.8-76.7 24.2-78.5 26.1a211 211 0 00-9.4-5.5 38.4 38.4 0 01-18.6-6.4l-1.2-15-9.6-9.5-7.5 3.2-8.2-6.2 6.1-13.2-11.6-9.3-15.5 13-10.5-5.4 5.1-7-17-7-4.7 6-10-2.4 8.3-19.6-4-6.2A225.5 225.5 0 01462 73.5c112.2 25 155.3 128 158.8 137"/></g><g clip-path="url(#c)" transform="matrix(1.33333 0 0 -1.33333 -191 772)"><path fill="#c1c2c5" d="M242.4 148.1l4 6.2L238 174l10 2.3c1.5-2 3-3.9 4.7-5.8l17 7c-1.8 2.2-3.4 4.4-5 6.7l10.3 5.7 15.5-13.1c4 3 7.8 6.2 11.6 9.3l-5.9 12.9 7.9 6.5 7.6-3.2 9.6 9.5 1.2 15a38.6 38.6 0 0018.6 6.3l9.4 5.6c-1.9 2.5-29.4 38.6-14.4 81A86.5 86.5 0 00381 368l-31.3 60.4 23.3 11.9-14.7 63.8C347.6 501.4 247 473.4 206.4 372a224 224 0 0136-223.9"/></g><g clip-path="url(#d)" transform="matrix(1.33333 0 0 -1.33333 -191 772)"><path fill="#50c3c3" d="M416 510.3a14.4 14.4 0 00-.4 18.1c-3.4 3.2-3.9 7.6-2.2 9.8 1.9 2.4 7.5 2.8 11.3-1.3a19.9 19.9 0 0014-.6c2 3.8 6.8 5 10.2 3.1 3.5-2 4.7-7 2-10.7.8-.7 4.7-4.7 4.7-11.1 0-6.1-3.5-10-4.2-10.9a172.6 172.6 0 01-35.5 3.6"/><path fill="#231f20" d="M429.9 527.4a3 3 0 10-6 0 3 3 0 006 0m15-.6a3 3 0 10-6 0 3 3 0 006 0m-3-7.5c0-2.5-3.6-4.5-8.1-4.5s-8.1 2-8.1 4.5 3.6 4.5 8 4.5c4.6 0 8.2-2 8.2-4.5"/><path fill="none" stroke="#231f20" stroke-miterlimit="10" stroke-width="6" d="M403.3 510.5l20.8-19.2"/><path fill="#aedede" d="M419.2 483.3a11.8 11.8 0 1023.7-1 11.8 11.8 0 00-23.7 1"/><path fill="#aedede" d="M427.4 479.4a1.6 1.6 0 103-.1 1.6 1.6 0 00-3 .1"/><path fill="none" stroke="#231f20" stroke-miterlimit="10" stroke-width="3" d="M427.4 479.4a1.6 1.6 0 103-.1 1.6 1.6 0 00-3 .1z"/><path fill="#50c3c3" d="M414 516.4c-7.3-8.2-8.1-11.4-7.2-12.7.8-1.2 3.3-.8 3.8-.7 3 .6 5.4 3.4 6 7.3"/></g><g clip-path="url(#e)" transform="matrix(1.33333 0 0 -1.33333 -191 772)"><path fill="#fcbd14" d="M554.4 461.6a19 19 0 016 11.1 19.5 19.5 0 01-9.9 19.2c-7.4 4.2-15.4 1.7-17.8 1-16-4.8-16-20-28.1-22.2-11.2-2-18.2 9.6-26.3 5.2-3.6-2-6-6.2-5.7-9.8.6-7 11.4-13.4 20.6-12.7 10.5.8 11.8 10.1 31 20 11.7 5.9 15.6 5 17.5 3.5 2.2-1.6 2.7-4.7 2.8-7.1"/><path fill="#231f20" d="M485.5 468.4a1.2 1.2 0 10-2.5 0 1.2 1.2 0 002.5 0"/><path fill="none" stroke="#231f20" stroke-miterlimit="10" d="M485.5 468.4a1.2 1.2 0 10-2.5 0 1.2 1.2 0 002.5 0z"/><path fill="#ed1c24" d="M460.5 477.1c0 .4 1.8.4 3.5.4.2 1.4.6 3.2 1 3.2.5 0 .6-1.9 1.3-3.6.7-1.7 2.1-4 5.5-6a33 33 0 01-7.3 4.1c-2.1 1-4.1 1.5-4 2"/><path fill="none" stroke="#ed1c24" stroke-miterlimit="10" d="M460.5 477.1c0 .4 1.8.4 3.5.4.2 1.4.6 3.2 1 3.2.5 0 .6-1.9 1.3-3.6.7-1.7 2.1-4 5.5-6a33 33 0 01-7.3 4.1c-2.1 1-4.1 1.5-4 2z"/><path fill="none" stroke="#231f20" stroke-miterlimit="10" stroke-width="6" d="M475.4 373c-8.4 7-16.8 14.2-25.2 21.4"/><path fill="#fcbd14" d="M446 365.1c1.7.2 2.5 4.1 2.9 5.2a37 37 0 0014.8 16.9c2.3 1.3 6.1 3 11.8 3.5a35 35 0 01-11.6-10.9c-3-4.4-2.6-6.3-5.6-11.3-2.6-4.6-8-13.7-14.6-13.3-5 .3-9.7 6.4-11.7 14.4 2-.4 3.8-1 5-1.4l3.6-1.3 3.8-1.3 1.5-.5"/><path fill="#aedede" d="M453.7 400.9a9.4 9.4 0 10-18.7 0 9.4 9.4 0 0018.7 0"/><path fill="#aedede" d="M447.2 403.7a1.2 1.2 0 10-2.5 0 1.2 1.2 0 002.5 0"/><path fill="none" stroke="#231f20" stroke-miterlimit="10" stroke-width="3" d="M447.2 403.7a1.2 1.2 0 10-2.5 0 1.2 1.2 0 002.5 0z"/></g><g clip-path="url(#f)" transform="matrix(1.33333 0 0 -1.33333 -191 772)"><path fill="#f15924" d="M625.5 339.4c.4-4 1.3-15.1-3-28-2.3-7.1-4.5-13.9-9.3-14.9-4.4-.9-7.5 4-18 13.7-16.1 14.9-19.8 13.5-22.4 20.3-3.5 8.7 2.3 12.2 4.6 30.6 2.8 22.4-4 32 1.9 36.3 6.3 4.6 20.5-1.9 28.2-10.5 3.2-3.6 5.3-9 9.5-20 5-13.3 7.6-20 8.5-27.5m-86.1-8.4c-4.9-.3-8.6 4.3-14.5 11.6a82 82 0 00-8.6 13c.3 3.8 1.5 12.8 8.4 20.5 2.8 3 5.3 5.8 8.8 6 8.8.5 17.4-15.2 18.7-28 .9-8.8-1.9-13.7-2.5-14.8-.9-1.6-4.6-8-10.3-8.3m31.9-57.1s4.2.6 7 2.3c2.6 2.6 2.5 8.8 2.7 11.6.4 5.5.3 7.2-1 8.6-2 2.4-5.7 2.1-6.2 2-7-.5-10.2-9.8-10.4-10.4-.8-2.5-2.1-6.2 0-9.7 2.4-3.9 7.2-4.4 7.9-4.4"/><path fill="#bcbec0" d="M630.2 340.6c-1.3-3 10.6-11.4 21.3-16 15-6.5 32.2-7.6 33.2-4.4 1 3-13.1 9.9-16.5 11.5-16.2 7.9-36.5 12.4-38 8.9"/><path fill="#e7e8e9" d="M634.4 301c3.3.3 8.3 0 13.6-2.2 5.2-2.2 6.7-4.8 10.2-4.6 4 .3 6.4 3.8 11 9.5 3.4 4 8.3 9.5 14.9 15.8A68.7 68.7 0 00631 338a782.5 782.5 0 003.4-37"/><path fill="none" stroke="#e7e8e9" stroke-miterlimit="10" stroke-width="4" d="M664.9 300c3.2-1 9.2-2.2 16-.2.8.2 9.3 2.7 9.2 5.9 0 3.8-12.9 6.2-15 6.6"/><path fill="#f15924" d="M678.8 346c1.2-1.6 6.8 0 10.3 3 2.4 2.2 2.5 4 5.3 6.8 2.3 2.2 4.8 3.3 6.6 4-2 .6-6.1 1.6-10.7 0-8.2-2.6-13.1-11.8-11.5-13.8m30.9-2.6c-6.5.8-9.9 3.5-13.9 1.7a14.9 14.9 0 01-7.7-9.3 50.4 50.4 0 0137.5 9.1 37 37 0 00-15.9-1.5M637 333.3l-22 15.1 1.5 15.3 20.6-30.4"/></g><g clip-path="url(#g)" transform="matrix(1.33333 0 0 -1.33333 -191 772)"><path fill="#43c1c5" d="M500.7 191.8l23.6 24.8c.3.3.8.3 1.2 0l24.7-23.6c.4-.3.4-.8 0-1.1L526.8 167a.8.8 0 00-1.2 0l-24.7 23.6c-.4.3-.4.8 0 1"/><path fill="#d5ac29" d="M516.7 191.8l8.3 8.6c.6.6 1.6.6 2.2 0l6-5.8c.6-.6.7-1.5 0-2.2l-8.2-8.6c-.6-.6-1.6-.6-2.2 0l-6 5.8c-.7.6-.7 1.5-.1 2.2"/><path fill="none" stroke="#231f20" stroke-miterlimit="10" d="M527.8 192.4c-.2.2-.2.6 0 .8.3.3.7.4 1 .2.1-.2 0-.6-.2-.9-.2-.2-.6-.3-.8-.1zm-4-4.1c-.2.2-.2.5 0 .8.4.3.7.3 1 .1.1-.2.1-.5-.2-.8a.5.5 0 00-.8-.1z"/><path fill="#231f20" d="M525.1 194.9c0-.2-.5-.5-1.4-1.5-1-1-1.2-1.5-1.4-1.4-.2 0-.2.4.4 2.4 2 .7 2.4.6 2.4.5"/><path fill="#d5ac29" d="M508.6 199.9l8.3 8.6c.6.6 1.6.6 2.2 0l6-5.8c.6-.6.6-1.5 0-2.2l-8.3-8.6c-.6-.6-1.5-.6-2.2 0l-6 5.8c-.6.6-.6 1.5 0 2.2"/><path fill="#43c1c5" d="M427.4 178.9l27.7 14.9c.4.2.9 0 1-.3l15-27.7c.2-.4 0-.8-.3-1l-27.7-15a.8.8 0 00-1 .3l-15 27.7c-.2.4 0 .9.3 1"/><path fill="#d5ac29" d="M443.7 175.4l4.8 2.5a4 4 0 005.7-1.7l1-1.8c1.1-2.1.3-4.7-1.8-5.8l-4.7-2.5c-2-1.1-4.7-.3-5.8 1.7l-1 1.8c-1 2.1-.3 4.7 1.8 5.8"/><path fill="none" stroke="#231f20" stroke-miterlimit="10" d="M451.6 171.7c-.2.2 0 .6.3.7.3.2.7.1.8 0 .1-.3 0-.6-.4-.8-.3-.2-.6-.1-.7.1zm-5.2-2.7c0 .2 0 .5.4.7.3.2.6.1.8-.1 0-.3 0-.6-.4-.7-.3-.2-.6-.1-.8 0z"/><path fill="#231f20" d="M449.5 174.4l-1.7-.8-1.6-1c-.1.1 0 .5 1 2 2 .1 2.3 0 2.3-.2"/><path fill="#d5ac29" d="M436.5 183.6l9.6 5c.7.5 1.7.2 2-.6l3.6-6.6c.4-.8.1-1.7-.7-2l-9.5-5.2c-.8-.4-1.7-.1-2.1.7l-3.5 6.6c-.4.7-.1 1.7.6 2"/><path fill="#e41175" d="M553.1 177.1l-11.2-1 1.4-11.4c.9-3.8 4.7-5.6 7.3-4.5 2.1.9 3.5 3.8 2.6 6.8 3 0 5.3 1.9 5.7 4.1.5 2.8-2 6-5.8 6"/><path fill="#401021" d="M547.4 169.1c1.3.5 2.9-.1 4-1.3 1.4-2.3.8-5-.7-5.9-1.9-1.2-4.7-.1-5.6 2-.8 2 .2 4.6 2.3 5.2"/><path fill="#e41175" d="M472.2 145.8l-9 2-1.8-9.2c-.3-3.2 2.3-5.6 4.5-5.4 2 .2 3.8 2.1 3.8 4.7 2.3-.8 4.6.1 5.5 1.8 1 2 0 5.2-3 6.1"/><path fill="#401021" d="M465.7 141c1.2 0 2.3-.8 2.8-2 .5-2.2-.6-4-2-4.5-1.8-.4-3.8 1.2-3.9 3-.1 1.8 1.3 3.6 3 3.6"/></g><g clip-path="url(#h)" transform="matrix(1.33333 0 0 -1.33333 -191 772)"><path fill="#4db448" d="M333.4 151.7l-4.2 2.5-.3 7-5.2 3.8 3.2 7.9 29-13.2-1-4-4.3-1.4-2.4-2.6-3.3-1.1-6.3 4-5.2-3m52.9-45.2l-9.2 3.6.6 5.6c-1.7 1.5-3.1 3.3-2.7 4.6.5 1.6 3.4 2 16.2 2 15.1-.2 17-.9 17.5-2 .3-1.1-.4-3-5-6.3l-3.8-8.8-7.6 2.1"/></g><g clip-path="url(#i)" transform="matrix(1.33333 0 0 -1.33333 -191 772)"><path fill="#2dc2ed" d="M356.8 19.8a44.5 44.5 0 0014.8 17.1h5a32.7 32.7 0 0013.6-15 34.6 34.6 0 00-33.4-2.1"/><path fill="#e7e8e9" stroke="#231f20" stroke-miterlimit="10" stroke-width="2" d="M378.2 71.3L375 40.4"/><path fill="#231f20" d="M371.5 37.6a2.9 2.9 0 105.8 0 2.9 2.9 0 00-5.8 0"/><path fill="none" stroke="#231f20" stroke-miterlimit="10" stroke-width="2" d="M371.5 37.6a2.9 2.9 0 105.8 0 2.9 2.9 0 00-5.8 0z"/><path fill="#231f20" d="M367.3 32.6c-.4-1.2 2-3.7 4.8-4.2 3-.6 6.5 1.3 6.4 2.6 0 .5-.4.8-.4.8-1.3 1-3.2-1.5-5.6-1-2.3.3-3.3 3-4.6 2.4 0 0-.4-.2-.6-.6"/><path fill="#231f20" d="M360.2 29c-.4-2.1 5.6-6.5 12-7 0 0 6.6-.5 12 4.2.5.4 2 1.8 2 3.5 0 .3 0 .8-.2 1-.7.4-2.4-1-3.3-1.8-.9-.7-5.8-4.5-10.3-4.2a15 15 0 00-7.8 3.5c-1 .8-2.4 2.3-3.5 2-.4-.2-.8-.7-.9-1.2"/><path fill="#231f20" d="M352 23.7c-.2-3.4 9.4-8.5 18.7-9.2a33 33 0 0115.5 3.2c3.3 1.4 5.7 2.9 6.3 5.3.1.3.5 1.6 0 2-1 .8-4.2-3-9.5-5.4a25 25 0 00-12-1.7c-2 .1-6.1.5-10.5 2.8-4 2.2-6.7 5-8 4.2-.5-.3-.5-1-.5-1.2"/></g><g clip-path="url(#j)" transform="matrix(1.33333 0 0 -1.33333 -191 772)"><path fill="#f2f2f2" d="M237.2 109.5l-3.2-3.7 4.5-10.4-1.5-5 6.8-8.8 5.1-5 5.3-3.7 3.5-3-1.8-10c1.7-1.4 3.4-2.8 5.1-4l2.3-10.8 4.7-6.3h7.2l23.8-1.4 10.8 7.3 7.6.7 2.4 6-1.3 2.8-5.1 2-4 6.8-9.4 3.6-29.4 9.5a30.4 30.4 0 004.5 9.3l-8.8 5.6-8.2 2.6-.9 8.6-8.5 7.6-7.2 3.7"/></g><g clip-path="url(#k)" transform="matrix(1.33333 0 0 -1.33333 -191 772)"><path fill="#fbbd18" d="M471 75.7l-14.5-3.4c2-4.1 22.8-44.8 67.4-51.4 23-3.4 61.6 1 77.8 30.5 11 20.3 5.9 42 3.9 49l-5.4-4.2c-10.1-34.8-32.6-59.3-54-61.3a76.8 76.8 0 00-49.6 14A90.4 90.4 0 00471 75.6"/><path fill="#f15a24" d="M487.6 80.9c2.3-5 8.5-16.9 22-25.4 3.8-2.4 19-11.8 38-8.6a56.7 56.7 0 0142.7 39.6l10 10.2c-.3-3.9-3.3-39.5-30.3-55.2-28.7-16.7-74-5-99 34.2l16.6 5.2"/><path fill="#6f0c27" d="M571.8 80c-3.8-13-10.7-18-13.5-19.7-15.6-9.4-42.9-1.4-63 23.5l-9.5-3.5a62.6 62.6 0 0140.6-32.8c4.6-1 21-4.3 38 5.1a54.8 54.8 0 0125.5 32.7l-18-5.5"/><path fill="none" stroke="#231f20" stroke-miterlimit="10" stroke-width="3" d="M576.2 107.4l16.3 13.3"/><path fill="#f1f0f1" d="M549.5 92.5l18.8 10.8 31.5 25.8 2.3 4.8 7.8-1.5 1.3-7-4.4-6.1 5.7-10.4-23.9-24-21-6.9-17.9-1.5-6.8 6.4 6.6 9.6"/></g><g clip-path="url(#l)" transform="matrix(1.33333 0 0 -1.33333 -191 772)"><path fill="#0c1f32" d="M324.9 108.6c-.2-1-1-2.4-2.3-2.5-1.5-.2-3 1.7-3 3.5.2 2 2.4 3.7 3.8 3.2 1.4-.4 2-2.6 1.5-4.2m-3.4 38.5c0-.3-.3-1.5-1-1.7-1-.2-2.5 1-2.5 2.5 0 1.4 1.5 2.7 2.5 2.4 1-.2 1.2-2 1-3.2m36.1-7.3c0-.7-.3-2-1-2.3-1-.3-2.4 1-2.6 2.5-.3 1.9 1.7 3.9 2.7 3.6 1-.3 1.1-2.4 1-3.8m10.4 28c0-.3 0-1.8-.8-2.2-1.2-.7-4.5 1.2-4.2 3.2.1 1.2 1.5 2.4 3 2.2 1.4-.3 2-2.2 2-3.2M362 195c0-.7-.5-1.4-1.2-1.4-.8-.1-1.5.7-1.5 1.6 0 .6.4 1.3 1 1.4.7.2 1.7-.7 1.6-1.6m52.7-13.7a2.7 2.7 0 00-2-1.6c-1.6-.3-3.5 1-3.6 2.6 0 1.7 1.9 3.2 3.6 2.8 1.6-.4 2.6-2.4 2-3.8m-22.8-35.7c-.1-.3-.3-1.4-1-1.6-1-.3-2.5 1-2.5 2.4s1.5 2.7 2.4 2.5c1-.3 1.3-2 1-3.3m-27.4-38.2c0-1-.5-2.6-1.5-2.8-1.1-.3-2.8 1.3-2.8 3 0 1.4 1.3 2.9 2.4 2.7 1.2 0 1.8-1.7 1.9-2.9m57.6 1c-.1-.9-.6-2.4-1.7-2.8-1.5-.5-3.9 1.3-3.9 3.3 0 1.9 2 3.6 3.6 3.3 1.4-.3 2-2.4 2-3.8m58.4-4.1c0-.3-.3-1.4-1-1.6-1-.3-2.5 1-2.5 2.4 0 1.5 1.5 2.7 2.5 2.5 1-.3 1.3-2 1-3.3m26 39.8c-.2-2.3-3-4-4-3.5-.6.4-.4 1.8-.3 2.4.3 2 1.6 4.2 2.8 4 .9 0 1.6-1.6 1.5-2.9m77.1 11.9c-.3-1-1.4-1.4-1.5-1.5-1.8-.6-4 .9-4 1.9 0 .3.8.8 2.3 1.6 1.8 1 2.1 1 2.3.9.9-.3 1.4-1.8 1-3"/></g><g clip-path="url(#m)" transform="matrix(1.33333 0 0 -1.33333 -191 772)"><path fill="#231f20" d="M334.1 385c1-1.6 3.5-1.8 5.7-.5s3.3 3.7 2.3 5.3c-.9 1.5-3.4 1.7-5.7.4-2.2-1.3-3.2-3.6-2.3-5.2"/><path fill="#231f20" stroke="#231f20" stroke-miterlimit="10" stroke-width="3" d="M304.5 444l33.6-56.6"/><path fill="#231f20" d="M305.2 446.5c.3-.6-.1-1.4-1-2-.9-.5-1.8-.4-2.2.1-.3.6.1 1.5 1 2s1.9.5 2.2 0"/><path fill="none" stroke="#231f20" stroke-miterlimit="10" stroke-width="3" d="M305.2 446.5c.3-.6-.1-1.4-1-2-.9-.5-1.8-.4-2.2.1-.3.6.1 1.5 1 2s1.9.5 2.2 0z"/><path fill="#ed1966" d="M316.7 444.5l6-11.5a59.6 59.6 0 00-20-8.9l-5.4 12a39.9 39.9 0 0019.4 8.4"/></g><g clip-path="url(#n)" transform="matrix(1.33333 0 0 -1.33333 -191 772)"><path fill="#f05227" d="M224.7 233c0 6.4 5 11.6 11.3 11.6 6.3 0 11.3-5.2 11.3-11.6 0-6.4-5-11.6-11.3-11.6-6.2 0-11.3 5.2-11.3 11.6"/><path fill="#231f20" d="M227.5 238.5c4.6-6.2 6.8-7.1 7.9-6.7 1 .3 1.6 1.8 1.3 3-.3.9-1.2 1.3-3.5 2.5L228 240z"/><path fill="none" stroke="#231f20" stroke-miterlimit="10" stroke-width=".8" d="M227.5 238.5c4.6-6.2 6.8-7.1 7.9-6.7 1 .3 1.6 1.8 1.3 3-.3.9-1.2 1.3-3.5 2.5L228 240z"/><path fill="#faa41c" d="M261.6 236.6a9.8 9.8 0 00-2.2 13.7 9.8 9.8 0 0013.7 1.9 9.8 9.8 0 002.3-13.7 9.8 9.8 0 00-13.8-2"/><path fill="#231f20" d="M259.2 241.3c6.7 0 8.4 1 8.7 2 .3.8-.5 2-1.4 2.4-.8.3-1.5 0-3.5-1.1l-4.4-2.3.6-1"/><path fill="none" stroke="#231f20" stroke-miterlimit="10" stroke-width=".8" d="M259.2 241.3c6.7 0 8.4 1 8.7 2 .3.8-.5 2-1.4 2.4-.8.3-1.5 0-3.5-1.1l-4.4-2.3.6-1z"/><path fill="#231f20" d="M222.8 253.1a2.7 2.7 0 10-5.3 0 2.7 2.7 0 005.3 0"/><path fill="none" stroke="#231f20" stroke-miterlimit="10" stroke-width=".8" d="M222.8 253.1a2.7 2.7 0 10-5.3 0 2.7 2.7 0 005.3 0z"/><path fill="#231f20" d="M233.9 254.5a2.7 2.7 0 10-5.3 0 2.7 2.7 0 005.3 0"/><path fill="none" stroke="#231f20" stroke-miterlimit="10" stroke-width=".8" d="M233.9 254.5a2.7 2.7 0 10-5.3 0 2.7 2.7 0 005.3 0z"/><path fill="#231f20" d="M218.7 262.9a2.7 2.7 0 10-5.3 0 2.7 2.7 0 005.3 0"/><path fill="none" stroke="#231f20" stroke-miterlimit="10" stroke-width=".8" d="M218.7 262.9a2.7 2.7 0 10-5.3 0 2.7 2.7 0 005.3 0z"/><path fill="#231f20" d="M230.8 264.7a2.7 2.7 0 10-5.3 0 2.7 2.7 0 005.3 0"/><path fill="none" stroke="#231f20" stroke-miterlimit="10" stroke-width=".8" d="M230.8 264.7a2.7 2.7 0 10-5.3 0 2.7 2.7 0 005.3 0z"/><path fill="#231f20" d="M216 273a2.7 2.7 0 10-5.3 0 2.7 2.7 0 005.3 0"/><path fill="none" stroke="#231f20" stroke-miterlimit="10" stroke-width=".8" d="M216 273a2.7 2.7 0 10-5.3 0 2.7 2.7 0 005.3 0z"/><path fill="#231f20" d="M227.4 275a2.7 2.7 0 10-5.4 0 2.7 2.7 0 005.4 0"/><path fill="none" stroke="#231f20" stroke-miterlimit="10" stroke-width=".8" d="M227.4 275a2.7 2.7 0 10-5.4 0 2.7 2.7 0 005.4 0z"/><path fill="#231f20" d="M257.3 262a2.7 2.7 0 10-5.3 0 2.7 2.7 0 005.3 0"/><path fill="none" stroke="#231f20" stroke-miterlimit="10" stroke-width=".8" d="M257.3 262a2.7 2.7 0 10-5.3 0 2.7 2.7 0 005.3 0z"/><path fill="#231f20" d="M270 265.6a2.7 2.7 0 10-5.3 0 2.7 2.7 0 005.3 0"/><path fill="none" stroke="#231f20" stroke-miterlimit="10" stroke-width=".8" d="M270 265.6a2.7 2.7 0 10-5.3 0 2.7 2.7 0 005.3 0z"/><path fill="#231f20" d="M254 271.7a2.7 2.7 0 10-5.3 0 2.7 2.7 0 005.3 0"/><path fill="none" stroke="#231f20" stroke-miterlimit="10" stroke-width=".8" d="M254 271.7a2.7 2.7 0 10-5.3 0 2.7 2.7 0 005.3 0z"/><path fill="#231f20" d="M268.4 275a2.7 2.7 0 10-5.4 0 2.7 2.7 0 005.4 0"/><path fill="none" stroke="#231f20" stroke-miterlimit="10" stroke-width=".8" d="M268.4 275a2.7 2.7 0 10-5.4 0 2.7 2.7 0 005.4 0z"/><path fill="#231f20" d="M252.4 281.3a2.7 2.7 0 10-5.3 0 2.7 2.7 0 005.3 0"/><path fill="none" stroke="#231f20" stroke-miterlimit="10" stroke-width=".8" d="M252.4 281.3a2.7 2.7 0 10-5.3 0 2.7 2.7 0 005.3 0z"/><path fill="#231f20" d="M266 284.7a2.7 2.7 0 10-5.4 0 2.7 2.7 0 005.3 0"/><path fill="none" stroke="#231f20" stroke-miterlimit="10" stroke-width=".8" d="M266 284.7a2.7 2.7 0 10-5.4 0 2.7 2.7 0 005.3 0z"/></g><g clip-path="url(#o)" transform="matrix(1.33333 0 0 -1.33333 -191 772)"><path fill="#e3e5e4" d="M192 310a119.4 119.4 0 00-31.1 13.7l1.3 13.5a105.2 105.2 0 0034.1.3 227.3 227.3 0 01-4.2-27.5"/><path fill="#f1f1f2" d="M193.7 323.4l-31.1 3.7.7 3.8 31-3.9"/><path fill="#f7c11c" d="M163.2 329.4c-1-6.3-5.9-10.7-10.8-9.9-5 .8-8.2 6.6-7.2 12.8 1 6.3 5.9 10.7 10.9 10 5-.9 8.1-6.6 7.1-12.9"/><path fill="#231f20" d="M150.7 328c.4 0 .7-.5.6-1-.1-.6-.5-1-1-.9-.3 0-.6.6-.5 1 .1.6.5 1 .9 1"/><path fill="none" stroke="#231f20" stroke-miterlimit="10" d="M150.7 328c.4 0 .7-.5.6-1-.1-.6-.5-1-1-.9-.3 0-.6.6-.5 1 .1.6.5 1 .9 1z"/><path fill="#231f20" d="M152.1 336.9c.4 0 .7-.6.6-1.1 0-.5-.5-.9-.9-.8-.4 0-.6.5-.5 1 0 .6.4 1 .8.9"/><path fill="none" stroke="#231f20" stroke-miterlimit="10" d="M152.1 336.9c.4 0 .7-.6.6-1.1 0-.5-.5-.9-.9-.8-.4 0-.6.5-.5 1 0 .6.4 1 .8.9z"/><path fill="#231f20" d="M156 328c-.2.2.2 1 .5 2.9s.2 2.7.4 2.8c.2.1.6-.4 1.5-3.2-1.7-2.3-2.3-2.7-2.4-2.5"/></g><g clip-path="url(#p)" transform="matrix(1.33333 0 0 -1.33333 -191 772)"><path fill="#8e8f8f" d="M276.6 463.3l-8.5 13.4a373.3 373.3 0 01-40.4-43.6c-13-16.5-20.3-28.6-18.8-42.7.4-3.3 1.1-6 1.8-7.8a282 282 0 0065.9 80.7"/><path fill="#8e8f8f" d="M198.8 389.2c2.8-3.6 8-8.9 15.8-12.3 2.7-1.2 16.6-7.2 27.6-1.3 3.1 1.7 6.4 4.6 11.2 8.9 2.4 2.1 7.3 6.4 12.3 6.4l1.2-.1c3.6-.8 5.9-4 7.1-6.1a59.3 59.3 0 01-20.6-10.4c-11.8-9.1-12-11.9-17.5-15.3-6.4-4-18.3-7.6-28-2a25.2 25.2 0 00-11.4 16.4 25 25 0 002.3 15.8m79.2 16.5c9.2-18.6 12.8-33 14.4-43 .2-1.5 1-7.2 3.1-14.5 3.2-11.5 6-20.9 14-26a24 24 0 0110.4-3.3 50.2 50.2 0 00-12.5 21.4c-1.8 6.4-.7 8-2 18.4-1.4 11.5-2.6 21.9-8.7 31.1a45 45 0 01-18.8 15.9"/><path fill="#424342" d="M257.6 472.4a391.8 391.8 0 01-42.6-51.2c-10.2-15.5-15.3-23.4-16.4-33.9-.3-2.4-2-21.5 8-26.9 6.6-3.6 15.4.6 20.2 3 6.6 3 7.8 5.7 18.7 14.4 11.1 9 16.8 13.3 21 12.2 7.1-1.9 9.5-14.7 10.9-21.7 3.2-17.3-2.6-22.5 1.5-35.6 1-3.1 4.8-13.6 14.7-20.7 16.3-11.6 36.6-5 39.4-4a103.2 103.2 0 007.1 20.9c-15.5-12.1-25-9.3-27.1-8.6-13 4.6-17.1 25.4-19.8 38-3.3 15.7-.5 24-8 37.5-2.4 4.6-7.2 13-14.5 13.7-1.8.1-4.7-.1-14-6.9-10.2-7.4-11.2-10.3-17.7-14.9l-.4-.3c-5.5-3.9-20.8-11.6-25.6-7.5-4 3.5.4 14.8 3.2 21.8a123.9 123.9 0 0021.3 34.3c9.2 11.3 20 24 32.4 37.8l-12.3-1.4"/><path fill="#181818" d="M250.6 465.8L236.8 481l25.3 16.7 10.6-22.6z"/><path fill="#787878" d="M227 491.8l-28 41.3 7.4 5.1 28.4-39.5-8-6.9m96.1-1l-32 82.6 7.5 5.6 34.6-83.7a77.7 77.7 0 01-10.1-4.5m-26.3 42.8l-4.4-1.8-8.4 17.7 4.7 1.6 8.1-17.5"/><path fill="#b32e2c" d="M203.4 526.8l7.7 5 2.3-3.2-7.4-5.7zm82.1 19.2l4.7 1.6 1.1-2.6-4.6-1.6-1.2 2.6m5.2 27.4l8.5 3.5 1.2-3-8.5-3.6-1.2 3"/><path fill="#787878" d="M251.7 466.2l-11.9 13.2 18.3 13.1 18.5-29.2a445.8 445.8 0 0046.3 27.5l-24 43.5a201.1 201.1 0 01-79-49.2l22-29.5 9.8 10.6"/></g><g clip-path="url(#q)" transform="matrix(1.33333 0 0 -1.33333 -191 772)"><path fill="#4e504f" d="M169.5 273.6l1-15.8 22.8 3.4a159 159 0 00-1 16.8l-22.8-4.4"/><path fill="#231f20" d="M147.3 245.4c-2.3 0-4 .6-4 1.3-.1.6 1.4 1.6 3.8 2a4 4 0 01.2-3.3"/><path fill="#e28e25" d="M195.2 249.2a281.4 281.4 0 00-2.1 14.5 55.7 55.7 0 01-36.6-6.6c-2.7-1.6-10.6-6.4-9.7-10.5.9-4.4 10.6-5.6 13.5-6a54 54 0 0134.9 8.6"/><path fill="#9b9e9f" d="M214.5 191.5l-17.4-8.5a121.3 121.3 0 00-20.2 66.7l18 3.2a204.2 204.2 0 0119.6-61.4"/><path fill="#231f20" d="M186.6 243.1c0-1.5-.8-2.6-1.7-2.6-1 0-1.7 1.1-1.7 2.6s.8 2.7 1.7 2.7c1 0 1.7-1.2 1.7-2.7"/><path fill="#ef5625" d="M183.5 211.1a108.6 108.6 0 00-4.3 18.3c-3.3 0-9-.5-14.8-3.8-1.4-.8-10.7-6-9.7-10.6s11.3-5.7 13.5-6c6.7-.6 12.1 1 15.3 2.1"/><path fill="#231f20" d="M200.8 196c.6-1.3.4-2.7-.4-3-.8-.4-2 .3-2.6 1.6-.6 1.3-.4 2.7.4 3 .8.5 2-.3 2.6-1.6m-4.1 9.9c.5-1.4.2-2.7-.6-3-.8-.4-2 .4-2.5 1.7-.5 1.4-.3 2.7.6 3 .8.4 2-.4 2.5-1.7m-4.5 12.4c.5-1.4.2-2.7-.7-3-.8-.3-1.9.5-2.4 1.9-.4 1.3-.1 2.7.7 3 .9.3 2-.6 2.4-2m-4.2 12.9c.6-1.4.3-2.7-.5-3-.9-.4-2 .4-2.6 1.8-.5 1.3-.3 2.7.6 3 .8.4 2-.4 2.5-1.8m-32.7-17.4c-2.5 0-4.3.6-4.4 1.2 0 .7 1.6 1.6 4 2.2a5.9 5.9 0 01.4-3.4"/></g></svg>